# Wavefront OBJ file automatically generated by Tiled2Unity

# Vertices (Count = 453)
v -1760 -32 0
v -1792 -32 0
v -1792 0 0
v -1760 0 0
v -1760 -64 0
v -1792 -64 0
v -1760 -96 0
v -1792 -96 0
v -1760 -128 0
v -1792 -128 0
v -1760 -160 0
v -1792 -160 0
v -1760 -192 0
v -1792 -192 0
v -736 -224 0
v -768 -224 0
v -768 -192 0
v -736 -192 0
v -800 -224 0
v -800 -192 0
v -832 -224 0
v -832 -192 0
v -864 -224 0
v -864 -192 0
v -896 -224 0
v -896 -192 0
v -928 -224 0
v -928 -192 0
v -960 -224 0
v -960 -192 0
v -992 -224 0
v -992 -192 0
v -1024 -224 0
v -1024 -192 0
v -1056 -224 0
v -1056 -192 0
v -1088 -224 0
v -1088 -192 0
v -1120 -224 0
v -1120 -192 0
v -1152 -224 0
v -1152 -192 0
v -1312 -224 0
v -1344 -224 0
v -1344 -192 0
v -1312 -192 0
v -1376 -224 0
v -1376 -192 0
v -1408 -224 0
v -1408 -192 0
v -1440 -224 0
v -1440 -192 0
v -1472 -224 0
v -1472 -192 0
v -1504 -224 0
v -1504 -192 0
v -1536 -224 0
v -1536 -192 0
v -1568 -224 0
v -1568 -192 0
v -1600 -224 0
v -1600 -192 0
v -1632 -224 0
v -1632 -192 0
v -1664 -224 0
v -1664 -192 0
v -1696 -224 0
v -1696 -192 0
v -1728 -224 0
v -1728 -192 0
v -1760 -224 0
v -1792 -224 0
v -736 -256 0
v -768 -256 0
v -800 -256 0
v -832 -256 0
v -864 -256 0
v -896 -256 0
v -928 -256 0
v -960 -256 0
v -992 -256 0
v -1024 -256 0
v -1056 -256 0
v -1088 -256 0
v -1120 -256 0
v -1152 -256 0
v -1312 -256 0
v -1344 -256 0
v -1376 -256 0
v -1408 -256 0
v -1440 -256 0
v -1472 -256 0
v -1504 -256 0
v -1536 -256 0
v -1568 -256 0
v -1600 -256 0
v -1632 -256 0
v -1664 -256 0
v -1696 -256 0
v -1728 -256 0
v -1760 -256 0
v -1792 -256 0
v -896 -288 0
v -928 -288 0
v -960 -288 0
v -1760 -288 0
v -1792 -288 0
v -896 -320 0
v -928 -320 0
v -960 -320 0
v -1760 -320 0
v -1792 -320 0
v -896 -352 0
v -928 -352 0
v -960 -352 0
v -1760 -352 0
v -1792 -352 0
v -896 -384 0
v -928 -384 0
v -960 -384 0
v -1760 -384 0
v -1792 -384 0
v -896 -416 0
v -928 -416 0
v -960 -416 0
v -1760 -416 0
v -1792 -416 0
v -896 -448 0
v -928 -448 0
v -960 -448 0
v -1760 -448 0
v -1792 -448 0
v -928 -480 0
v -960 -480 0
v -992 -480 0
v -992 -448 0
v -1024 -480 0
v -1024 -448 0
v -1056 -480 0
v -1056 -448 0
v -1088 -480 0
v -1088 -448 0
v -1120 -480 0
v -1120 -448 0
v -1152 -480 0
v -1152 -448 0
v -1184 -480 0
v -1184 -448 0
v -1216 -480 0
v -1216 -448 0
v -1248 -480 0
v -1248 -448 0
v -1280 -480 0
v -1280 -448 0
v -1312 -480 0
v -1312 -448 0
v -1344 -480 0
v -1344 -448 0
v -1376 -480 0
v -1376 -448 0
v -1408 -480 0
v -1408 -448 0
v -1440 -480 0
v -1440 -448 0
v -1472 -480 0
v -1472 -448 0
v -1504 -480 0
v -1504 -448 0
v -1536 -480 0
v -1536 -448 0
v -1568 -480 0
v -1568 -448 0
v -1600 -480 0
v -1600 -448 0
v -1632 -480 0
v -1632 -448 0
v -1664 -480 0
v -1664 -448 0
v -1696 -480 0
v -1696 -448 0
v -1728 -480 0
v -1728 -448 0
v -1760 -480 0
v -1792 -480 0
v -928 -512 0
v -960 -512 0
v -992 -512 0
v -1024 -512 0
v -1056 -512 0
v -1088 -512 0
v -1120 -512 0
v -1152 -512 0
v -1184 -512 0
v -1216 -512 0
v -1248 -512 0
v -1280 -512 0
v -1312 -512 0
v -1344 -512 0
v -1376 -512 0
v -1408 -512 0
v -1440 -512 0
v -1472 -512 0
v -1504 -512 0
v -1536 -512 0
v -1568 -512 0
v -1600 -512 0
v -1632 -512 0
v -1664 -512 0
v -1696 -512 0
v -1728 -512 0
v -1760 -512 0
v -160 -544 0
v -192 -544 0
v -192 -512 0
v -160 -512 0
v -224 -544 0
v -224 -512 0
v -256 -544 0
v -256 -512 0
v -288 -544 0
v -288 -512 0
v -160 -576 0
v -192 -576 0
v -224 -576 0
v -256 -576 0
v -288 -576 0
v -192 -608 0
v -224 -608 0
v -256 -608 0
v -192 -640 0
v -224 -640 0
v -256 -640 0
v -192 -672 0
v -224 -672 0
v -256 -672 0
v -192 -704 0
v -224 -704 0
v -256 -704 0
v -224 -736 0
v -256 -736 0
v -288 -736 0
v -288 -704 0
v -320 -736 0
v -320 -704 0
v -352 -736 0
v -352 -704 0
v -384 -736 0
v -384 -704 0
v -416 -736 0
v -416 -704 0
v -448 -736 0
v -448 -704 0
v -480 -736 0
v -480 -704 0
v -512 -736 0
v -512 -704 0
v -544 -736 0
v -544 -704 0
v -576 -736 0
v -576 -704 0
v -608 -736 0
v -608 -704 0
v -640 -736 0
v -640 -704 0
v -672 -736 0
v -672 -704 0
v -704 -736 0
v -704 -704 0
v -736 -736 0
v -736 -704 0
v -768 -736 0
v -768 -704 0
v -800 -736 0
v -800 -704 0
v -832 -736 0
v -832 -704 0
v -1024 -736 0
v -1056 -736 0
v -1056 -704 0
v -1024 -704 0
v -1088 -736 0
v -1088 -704 0
v -1120 -736 0
v -1120 -704 0
v -1152 -736 0
v -1152 -704 0
v -1184 -736 0
v -1184 -704 0
v -1216 -736 0
v -1216 -704 0
v -1248 -736 0
v -1248 -704 0
v -1280 -736 0
v -1280 -704 0
v -1312 -736 0
v -1312 -704 0
v -1344 -736 0
v -1344 -704 0
v -1376 -736 0
v -1376 -704 0
v -1408 -736 0
v -1408 -704 0
v -1440 -736 0
v -1440 -704 0
v -224 -768 0
v -256 -768 0
v -288 -768 0
v -320 -768 0
v -352 -768 0
v -384 -768 0
v -416 -768 0
v -448 -768 0
v -480 -768 0
v -512 -768 0
v -544 -768 0
v -576 -768 0
v -608 -768 0
v -640 -768 0
v -672 -768 0
v -704 -768 0
v -736 -768 0
v -768 -768 0
v -800 -768 0
v -832 -768 0
v -1024 -768 0
v -1056 -768 0
v -1088 -768 0
v -1120 -768 0
v -1152 -768 0
v -1184 -768 0
v -1216 -768 0
v -1248 -768 0
v -1280 -768 0
v -1312 -768 0
v -1344 -768 0
v -1376 -768 0
v -1408 -768 0
v -1440 -768 0
v -1344 -800 0
v -1376 -800 0
v -1408 -800 0
v -1344 -832 0
v -1376 -832 0
v -1408 -832 0
v -1344 -864 0
v -1376 -864 0
v -1408 -864 0
v -1344 -896 0
v -1376 -896 0
v -1408 -896 0
v -1344 -928 0
v -1376 -928 0
v -1408 -928 0
v -1344 -960 0
v -1376 -960 0
v -1408 -960 0
v -352 -992 0
v -384 -992 0
v -384 -960 0
v -352 -960 0
v -416 -992 0
v -416 -960 0
v -448 -992 0
v -448 -960 0
v -480 -992 0
v -480 -960 0
v -512 -992 0
v -512 -960 0
v -544 -992 0
v -544 -960 0
v -576 -992 0
v -576 -960 0
v -608 -992 0
v -608 -960 0
v -640 -992 0
v -640 -960 0
v -672 -992 0
v -672 -960 0
v -704 -992 0
v -704 -960 0
v -736 -992 0
v -736 -960 0
v -768 -992 0
v -768 -960 0
v -800 -992 0
v -800 -960 0
v -832 -992 0
v -832 -960 0
v -864 -992 0
v -864 -960 0
v -896 -992 0
v -896 -960 0
v -928 -992 0
v -928 -960 0
v -960 -992 0
v -960 -960 0
v -992 -992 0
v -992 -960 0
v -1024 -992 0
v -1024 -960 0
v -1056 -992 0
v -1056 -960 0
v -1088 -992 0
v -1088 -960 0
v -1120 -992 0
v -1120 -960 0
v -1152 -992 0
v -1152 -960 0
v -1184 -992 0
v -1184 -960 0
v -1216 -992 0
v -1216 -960 0
v -1248 -992 0
v -1248 -960 0
v -1280 -992 0
v -1280 -960 0
v -1312 -992 0
v -1312 -960 0
v -1344 -992 0
v -1376 -992 0
v -352 -1024 0
v -384 -1024 0
v -416 -1024 0
v -448 -1024 0
v -480 -1024 0
v -512 -1024 0
v -544 -1024 0
v -576 -1024 0
v -608 -1024 0
v -640 -1024 0
v -672 -1024 0
v -704 -1024 0
v -736 -1024 0
v -768 -1024 0
v -800 -1024 0
v -832 -1024 0
v -864 -1024 0
v -896 -1024 0
v -928 -1024 0
v -960 -1024 0
v -992 -1024 0
v -1024 -1024 0
v -1056 -1024 0
v -1088 -1024 0
v -1120 -1024 0
v -1152 -1024 0
v -1184 -1024 0
v -1216 -1024 0
v -1248 -1024 0
v -1280 -1024 0
v -1312 -1024 0
v -1344 -1024 0
v -1376 -1024 0

# Texture Coorindates (Count = 52)
vt 0.7517999 0.5001221
vt 0.8589383 0.5001221
vt 0.8589383 0.9998779
vt 0.7517999 0.9998779
vt 0.0001220703 0.5001221
vt 0.1072605 0.5001221
vt 0.1072605 0.9998779
vt 0.0001220703 0.9998779
vt 0.3222697 0.5001221
vt 0.4294081 0.5001221
vt 0.4294081 0.9998779
vt 0.3222697 0.9998779
vt 0.6444173 0.5001221
vt 0.7515558 0.5001221
vt 0.7515558 0.9998779
vt 0.6444173 0.9998779
vt 0.0001220703 0.0001220703
vt 0.1072605 0.0001220703
vt 0.1072605 0.4998779
vt 0.0001220703 0.4998779
vt 0.3222697 0.0001220703
vt 0.4294081 0.0001220703
vt 0.4294081 0.4998779
vt 0.3222697 0.4998779
vt 0.6444173 0.0001220703
vt 0.7515558 0.0001220703
vt 0.7515558 0.4998779
vt 0.6444173 0.4998779
vt 0.8591825 0.5001221
vt 0.9663209 0.5001221
vt 0.9663209 0.9998779
vt 0.8591825 0.9998779
vt 0.7517999 0.0001220703
vt 0.8589383 0.0001220703
vt 0.8589383 0.4998779
vt 0.7517999 0.4998779
vt 0.8591825 0.0001220703
vt 0.9663209 0.0001220703
vt 0.9663209 0.4998779
vt 0.8591825 0.4998779
vt 0.1075046 0.5001221
vt 0.214643 0.5001221
vt 0.214643 0.9998779
vt 0.1075046 0.9998779
vt 0.2148872 0.5001221
vt 0.3220256 0.5001221
vt 0.3220256 0.9998779
vt 0.2148872 0.9998779
vt 0.1075046 0.0001220703
vt 0.214643 0.0001220703
vt 0.214643 0.4998779
vt 0.1075046 0.4998779

# Normal
vn 0 0 -1

# Groups (Count = 1)
g mesh_[00]_[00]
f  1/1/1  2/2/1  3/3/1  4/4/1 
f  5/1/1  6/2/1  2/3/1  1/4/1 
f  7/1/1  8/2/1  6/3/1  5/4/1 
f  9/1/1  10/2/1  8/3/1  7/4/1 
f  11/1/1  12/2/1  10/3/1  9/4/1 
f  13/1/1  14/2/1  12/3/1  11/4/1 
f  15/5/1  16/6/1  17/7/1  18/8/1 
f  16/9/1  19/10/1  20/11/1  17/12/1 
f  19/9/1  21/10/1  22/11/1  20/12/1 
f  21/9/1  23/10/1  24/11/1  22/12/1 
f  23/9/1  25/10/1  26/11/1  24/12/1 
f  25/9/1  27/10/1  28/11/1  26/12/1 
f  27/9/1  29/10/1  30/11/1  28/12/1 
f  29/9/1  31/10/1  32/11/1  30/12/1 
f  31/9/1  33/10/1  34/11/1  32/12/1 
f  33/9/1  35/10/1  36/11/1  34/12/1 
f  35/9/1  37/10/1  38/11/1  36/12/1 
f  37/9/1  39/10/1  40/11/1  38/12/1 
f  39/13/1  41/14/1  42/15/1  40/16/1 
f  43/5/1  44/6/1  45/7/1  46/8/1 
f  44/9/1  47/10/1  48/11/1  45/12/1 
f  47/9/1  49/10/1  50/11/1  48/12/1 
f  49/9/1  51/10/1  52/11/1  50/12/1 
f  51/9/1  53/10/1  54/11/1  52/12/1 
f  53/9/1  55/10/1  56/11/1  54/12/1 
f  55/9/1  57/10/1  58/11/1  56/12/1 
f  57/9/1  59/10/1  60/11/1  58/12/1 
f  59/9/1  61/10/1  62/11/1  60/12/1 
f  61/9/1  63/10/1  64/11/1  62/12/1 
f  63/9/1  65/10/1  66/11/1  64/12/1 
f  65/9/1  67/10/1  68/11/1  66/12/1 
f  67/9/1  69/10/1  70/11/1  68/12/1 
f  69/13/1  71/14/1  13/15/1  70/16/1 
f  71/1/1  72/2/1  14/3/1  13/4/1 
f  73/17/1  74/18/1  16/19/1  15/20/1 
f  74/21/1  75/22/1  19/23/1  16/24/1 
f  75/21/1  76/22/1  21/23/1  19/24/1 
f  76/21/1  77/22/1  23/23/1  21/24/1 
f  77/21/1  78/22/1  25/23/1  23/24/1 
f  78/21/1  79/22/1  27/23/1  25/24/1 
f  79/21/1  80/22/1  29/23/1  27/24/1 
f  80/21/1  81/22/1  31/23/1  29/24/1 
f  81/21/1  82/22/1  33/23/1  31/24/1 
f  82/21/1  83/22/1  35/23/1  33/24/1 
f  83/21/1  84/22/1  37/23/1  35/24/1 
f  84/21/1  85/22/1  39/23/1  37/24/1 
f  85/25/1  86/26/1  41/27/1  39/28/1 
f  87/17/1  88/18/1  44/19/1  43/20/1 
f  88/21/1  89/22/1  47/23/1  44/24/1 
f  89/21/1  90/22/1  49/23/1  47/24/1 
f  90/21/1  91/22/1  51/23/1  49/24/1 
f  91/21/1  92/22/1  53/23/1  51/24/1 
f  92/21/1  93/22/1  55/23/1  53/24/1 
f  93/21/1  94/22/1  57/23/1  55/24/1 
f  94/21/1  95/22/1  59/23/1  57/24/1 
f  95/21/1  96/22/1  61/23/1  59/24/1 
f  96/21/1  97/22/1  63/23/1  61/24/1 
f  97/21/1  98/22/1  65/23/1  63/24/1 
f  98/21/1  99/22/1  67/23/1  65/24/1 
f  99/21/1  100/22/1  69/23/1  67/24/1 
f  100/25/1  101/26/1  71/27/1  69/28/1 
f  101/1/1  102/2/1  72/3/1  71/4/1 
f  103/1/1  104/2/1  79/3/1  78/4/1 
f  104/29/1  105/30/1  80/31/1  79/32/1 
f  106/1/1  107/2/1  102/3/1  101/4/1 
f  108/1/1  109/2/1  104/3/1  103/4/1 
f  109/29/1  110/30/1  105/31/1  104/32/1 
f  111/1/1  112/2/1  107/3/1  106/4/1 
f  113/1/1  114/2/1  109/3/1  108/4/1 
f  114/29/1  115/30/1  110/31/1  109/32/1 
f  116/1/1  117/2/1  112/3/1  111/4/1 
f  118/1/1  119/2/1  114/3/1  113/4/1 
f  119/29/1  120/30/1  115/31/1  114/32/1 
f  121/1/1  122/2/1  117/3/1  116/4/1 
f  123/1/1  124/2/1  119/3/1  118/4/1 
f  124/29/1  125/30/1  120/31/1  119/32/1 
f  126/1/1  127/2/1  122/3/1  121/4/1 
f  128/33/1  129/34/1  124/35/1  123/36/1 
f  129/37/1  130/38/1  125/39/1  124/40/1 
f  131/1/1  132/2/1  127/3/1  126/4/1 
f  133/5/1  134/6/1  130/7/1  129/8/1 
f  134/9/1  135/10/1  136/11/1  130/12/1 
f  135/9/1  137/10/1  138/11/1  136/12/1 
f  137/9/1  139/10/1  140/11/1  138/12/1 
f  139/9/1  141/10/1  142/11/1  140/12/1 
f  141/9/1  143/10/1  144/11/1  142/12/1 
f  143/9/1  145/10/1  146/11/1  144/12/1 
f  145/9/1  147/10/1  148/11/1  146/12/1 
f  147/9/1  149/10/1  150/11/1  148/12/1 
f  149/9/1  151/10/1  152/11/1  150/12/1 
f  151/9/1  153/10/1  154/11/1  152/12/1 
f  153/9/1  155/10/1  156/11/1  154/12/1 
f  155/9/1  157/10/1  158/11/1  156/12/1 
f  157/9/1  159/10/1  160/11/1  158/12/1 
f  159/9/1  161/10/1  162/11/1  160/12/1 
f  161/9/1  163/10/1  164/11/1  162/12/1 
f  163/9/1  165/10/1  166/11/1  164/12/1 
f  165/9/1  167/10/1  168/11/1  166/12/1 
f  167/9/1  169/10/1  170/11/1  168/12/1 
f  169/9/1  171/10/1  172/11/1  170/12/1 
f  171/9/1  173/10/1  174/11/1  172/12/1 
f  173/9/1  175/10/1  176/11/1  174/12/1 
f  175/9/1  177/10/1  178/11/1  176/12/1 
f  177/9/1  179/10/1  180/11/1  178/12/1 
f  179/9/1  181/10/1  182/11/1  180/12/1 
f  181/13/1  183/14/1  131/15/1  182/16/1 
f  183/33/1  184/34/1  132/35/1  131/36/1 
f  185/17/1  186/18/1  134/19/1  133/20/1 
f  186/21/1  187/22/1  135/23/1  134/24/1 
f  187/21/1  188/22/1  137/23/1  135/24/1 
f  188/21/1  189/22/1  139/23/1  137/24/1 
f  189/21/1  190/22/1  141/23/1  139/24/1 
f  190/21/1  191/22/1  143/23/1  141/24/1 
f  191/21/1  192/22/1  145/23/1  143/24/1 
f  192/21/1  193/22/1  147/23/1  145/24/1 
f  193/21/1  194/22/1  149/23/1  147/24/1 
f  194/21/1  195/22/1  151/23/1  149/24/1 
f  195/21/1  196/22/1  153/23/1  151/24/1 
f  196/21/1  197/22/1  155/23/1  153/24/1 
f  197/21/1  198/22/1  157/23/1  155/24/1 
f  198/21/1  199/22/1  159/23/1  157/24/1 
f  199/21/1  200/22/1  161/23/1  159/24/1 
f  200/21/1  201/22/1  163/23/1  161/24/1 
f  201/21/1  202/22/1  165/23/1  163/24/1 
f  202/21/1  203/22/1  167/23/1  165/24/1 
f  203/21/1  204/22/1  169/23/1  167/24/1 
f  204/21/1  205/22/1  171/23/1  169/24/1 
f  205/21/1  206/22/1  173/23/1  171/24/1 
f  206/21/1  207/22/1  175/23/1  173/24/1 
f  207/21/1  208/22/1  177/23/1  175/24/1 
f  208/21/1  209/22/1  179/23/1  177/24/1 
f  209/21/1  210/22/1  181/23/1  179/24/1 
f  210/25/1  211/26/1  183/27/1  181/28/1 
f  212/5/1  213/6/1  214/7/1  215/8/1 
f  213/41/1  216/42/1  217/43/1  214/44/1 
f  216/45/1  218/46/1  219/47/1  217/48/1 
f  218/13/1  220/14/1  221/15/1  219/16/1 
f  222/17/1  223/18/1  213/19/1  212/20/1 
f  223/21/1  224/22/1  216/23/1  213/24/1 
f  224/21/1  225/22/1  218/23/1  216/24/1 
f  225/25/1  226/26/1  220/27/1  218/28/1 
f  227/1/1  228/2/1  224/3/1  223/4/1 
f  228/29/1  229/30/1  225/31/1  224/32/1 
f  230/1/1  231/2/1  228/3/1  227/4/1 
f  231/29/1  232/30/1  229/31/1  228/32/1 
f  233/1/1  234/2/1  231/3/1  230/4/1 
f  234/29/1  235/30/1  232/31/1  231/32/1 
f  236/33/1  237/34/1  234/35/1  233/36/1 
f  237/37/1  238/38/1  235/39/1  234/40/1 
f  239/5/1  240/6/1  238/7/1  237/8/1 
f  240/9/1  241/10/1  242/11/1  238/12/1 
f  241/9/1  243/10/1  244/11/1  242/12/1 
f  243/9/1  245/10/1  246/11/1  244/12/1 
f  245/9/1  247/10/1  248/11/1  246/12/1 
f  247/9/1  249/10/1  250/11/1  248/12/1 
f  249/9/1  251/10/1  252/11/1  250/12/1 
f  251/9/1  253/10/1  254/11/1  252/12/1 
f  253/9/1  255/10/1  256/11/1  254/12/1 
f  255/9/1  257/10/1  258/11/1  256/12/1 
f  257/9/1  259/10/1  260/11/1  258/12/1 
f  259/9/1  261/10/1  262/11/1  260/12/1 
f  261/9/1  263/10/1  264/11/1  262/12/1 
f  263/9/1  265/10/1  266/11/1  264/12/1 
f  265/9/1  267/10/1  268/11/1  266/12/1 
f  267/9/1  269/10/1  270/11/1  268/12/1 
f  269/9/1  271/10/1  272/11/1  270/12/1 
f  271/9/1  273/10/1  274/11/1  272/12/1 
f  273/13/1  275/14/1  276/15/1  274/16/1 
f  277/5/1  278/6/1  279/7/1  280/8/1 
f  278/41/1  281/42/1  282/43/1  279/44/1 
f  281/45/1  283/46/1  284/47/1  282/48/1 
f  283/41/1  285/42/1  286/43/1  284/44/1 
f  285/41/1  287/42/1  288/43/1  286/44/1 
f  287/45/1  289/46/1  290/47/1  288/48/1 
f  289/45/1  291/46/1  292/47/1  290/48/1 
f  291/45/1  293/46/1  294/47/1  292/48/1 
f  293/45/1  295/46/1  296/47/1  294/48/1 
f  295/45/1  297/46/1  298/47/1  296/48/1 
f  297/41/1  299/42/1  300/43/1  298/44/1 
f  299/45/1  301/46/1  302/47/1  300/48/1 
f  301/13/1  303/14/1  304/15/1  302/16/1 
f  305/17/1  306/18/1  240/19/1  239/20/1 
f  306/21/1  307/22/1  241/23/1  240/24/1 
f  307/21/1  308/22/1  243/23/1  241/24/1 
f  308/21/1  309/22/1  245/23/1  243/24/1 
f  309/21/1  310/22/1  247/23/1  245/24/1 
f  310/21/1  311/22/1  249/23/1  247/24/1 
f  311/21/1  312/22/1  251/23/1  249/24/1 
f  312/21/1  313/22/1  253/23/1  251/24/1 
f  313/21/1  314/22/1  255/23/1  253/24/1 
f  314/21/1  315/22/1  257/23/1  255/24/1 
f  315/21/1  316/22/1  259/23/1  257/24/1 
f  316/21/1  317/22/1  261/23/1  259/24/1 
f  317/21/1  318/22/1  263/23/1  261/24/1 
f  318/21/1  319/22/1  265/23/1  263/24/1 
f  319/21/1  320/22/1  267/23/1  265/24/1 
f  320/21/1  321/22/1  269/23/1  267/24/1 
f  321/21/1  322/22/1  271/23/1  269/24/1 
f  322/21/1  323/22/1  273/23/1  271/24/1 
f  323/25/1  324/26/1  275/27/1  273/28/1 
f  325/17/1  326/18/1  278/19/1  277/20/1 
f  326/49/1  327/50/1  281/51/1  278/52/1 
f  327/49/1  328/50/1  283/51/1  281/52/1 
f  328/49/1  329/50/1  285/51/1  283/52/1 
f  329/49/1  330/50/1  287/51/1  285/52/1 
f  330/49/1  331/50/1  289/51/1  287/52/1 
f  331/49/1  332/50/1  291/51/1  289/52/1 
f  332/49/1  333/50/1  293/51/1  291/52/1 
f  333/49/1  334/50/1  295/51/1  293/52/1 
f  334/49/1  335/50/1  297/51/1  295/52/1 
f  335/49/1  336/50/1  299/51/1  297/52/1 
f  336/49/1  337/50/1  301/51/1  299/52/1 
f  337/25/1  338/26/1  303/27/1  301/28/1 
f  339/1/1  340/2/1  336/3/1  335/4/1 
f  340/29/1  341/30/1  337/31/1  336/32/1 
f  342/1/1  343/2/1  340/3/1  339/4/1 
f  343/29/1  344/30/1  341/31/1  340/32/1 
f  345/1/1  346/2/1  343/3/1  342/4/1 
f  346/29/1  347/30/1  344/31/1  343/32/1 
f  348/1/1  349/2/1  346/3/1  345/4/1 
f  349/29/1  350/30/1  347/31/1  346/32/1 
f  351/1/1  352/2/1  349/3/1  348/4/1 
f  352/29/1  353/30/1  350/31/1  349/32/1 
f  354/33/1  355/34/1  352/35/1  351/36/1 
f  355/37/1  356/38/1  353/39/1  352/40/1 
f  357/5/1  358/6/1  359/7/1  360/8/1 
f  358/41/1  361/42/1  362/43/1  359/44/1 
f  361/41/1  363/42/1  364/43/1  362/44/1 
f  363/45/1  365/46/1  366/47/1  364/48/1 
f  365/41/1  367/42/1  368/43/1  366/44/1 
f  367/45/1  369/46/1  370/47/1  368/48/1 
f  369/41/1  371/42/1  372/43/1  370/44/1 
f  371/41/1  373/42/1  374/43/1  372/44/1 
f  373/41/1  375/42/1  376/43/1  374/44/1 
f  375/41/1  377/42/1  378/43/1  376/44/1 
f  377/45/1  379/46/1  380/47/1  378/48/1 
f  379/41/1  381/42/1  382/43/1  380/44/1 
f  381/41/1  383/42/1  384/43/1  382/44/1 
f  383/45/1  385/46/1  386/47/1  384/48/1 
f  385/41/1  387/42/1  388/43/1  386/44/1 
f  387/41/1  389/42/1  390/43/1  388/44/1 
f  389/45/1  391/46/1  392/47/1  390/48/1 
f  391/45/1  393/46/1  394/47/1  392/48/1 
f  393/41/1  395/42/1  396/43/1  394/44/1 
f  395/45/1  397/46/1  398/47/1  396/48/1 
f  397/41/1  399/42/1  400/43/1  398/44/1 
f  399/41/1  401/42/1  402/43/1  400/44/1 
f  401/41/1  403/42/1  404/43/1  402/44/1 
f  403/41/1  405/42/1  406/43/1  404/44/1 
f  405/45/1  407/46/1  408/47/1  406/48/1 
f  407/41/1  409/42/1  410/43/1  408/44/1 
f  409/41/1  411/42/1  412/43/1  410/44/1 
f  411/41/1  413/42/1  414/43/1  412/44/1 
f  413/45/1  415/46/1  416/47/1  414/48/1 
f  415/45/1  417/46/1  418/47/1  416/48/1 
f  417/41/1  419/42/1  354/43/1  418/44/1 
f  419/13/1  420/14/1  355/15/1  354/16/1 
f  421/17/1  422/18/1  358/19/1  357/20/1 
f  422/49/1  423/50/1  361/51/1  358/52/1 
f  423/49/1  424/50/1  363/51/1  361/52/1 
f  424/49/1  425/50/1  365/51/1  363/52/1 
f  425/49/1  426/50/1  367/51/1  365/52/1 
f  426/49/1  427/50/1  369/51/1  367/52/1 
f  427/49/1  428/50/1  371/51/1  369/52/1 
f  428/49/1  429/50/1  373/51/1  371/52/1 
f  429/49/1  430/50/1  375/51/1  373/52/1 
f  430/49/1  431/50/1  377/51/1  375/52/1 
f  431/49/1  432/50/1  379/51/1  377/52/1 
f  432/49/1  433/50/1  381/51/1  379/52/1 
f  433/49/1  434/50/1  383/51/1  381/52/1 
f  434/49/1  435/50/1  385/51/1  383/52/1 
f  435/49/1  436/50/1  387/51/1  385/52/1 
f  436/49/1  437/50/1  389/51/1  387/52/1 
f  437/49/1  438/50/1  391/51/1  389/52/1 
f  438/49/1  439/50/1  393/51/1  391/52/1 
f  439/49/1  440/50/1  395/51/1  393/52/1 
f  440/49/1  441/50/1  397/51/1  395/52/1 
f  441/49/1  442/50/1  399/51/1  397/52/1 
f  442/49/1  443/50/1  401/51/1  399/52/1 
f  443/49/1  444/50/1  403/51/1  401/52/1 
f  444/49/1  445/50/1  405/51/1  403/52/1 
f  445/49/1  446/50/1  407/51/1  405/52/1 
f  446/49/1  447/50/1  409/51/1  407/52/1 
f  447/49/1  448/50/1  411/51/1  409/52/1 
f  448/49/1  449/50/1  413/51/1  411/52/1 
f  449/49/1  450/50/1  415/51/1  413/52/1 
f  450/49/1  451/50/1  417/51/1  415/52/1 
f  451/49/1  452/50/1  419/51/1  417/52/1 
f  452/25/1  453/26/1  420/27/1  419/28/1 
