# Wavefront OBJ file automatically generated by Tiled2Unity

# Vertices (Count = 303)
v -640 -32 0
v -672 -32 0
v -672 0 0
v -640 0 0
v -704 -32 0
v -704 0 0
v -640 -64 0
v -672 -64 0
v -704 -64 0
v -640 -96 0
v -672 -96 0
v -704 -96 0
v -640 -128 0
v -672 -128 0
v -704 -128 0
v -640 -160 0
v -672 -160 0
v -704 -160 0
v -640 -192 0
v -672 -192 0
v -704 -192 0
v -640 -224 0
v -672 -224 0
v -704 -224 0
v -736 -224 0
v -736 -192 0
v -768 -224 0
v -768 -192 0
v -800 -224 0
v -800 -192 0
v -1024 -224 0
v -1056 -224 0
v -1056 -192 0
v -1024 -192 0
v -1088 -224 0
v -1088 -192 0
v -1120 -224 0
v -1120 -192 0
v -1152 -224 0
v -1152 -192 0
v -1184 -224 0
v -1184 -192 0
v -1344 -224 0
v -1376 -224 0
v -1376 -192 0
v -1344 -192 0
v -1408 -224 0
v -1408 -192 0
v -1440 -224 0
v -1440 -192 0
v -1472 -224 0
v -1472 -192 0
v -1504 -224 0
v -1504 -192 0
v -1536 -224 0
v -1536 -192 0
v -1568 -224 0
v -1568 -192 0
v -1600 -224 0
v -1600 -192 0
v -1632 -224 0
v -1632 -192 0
v -640 -256 0
v -672 -256 0
v -704 -256 0
v -736 -256 0
v -768 -256 0
v -800 -256 0
v -1024 -256 0
v -1056 -256 0
v -1088 -256 0
v -1120 -256 0
v -1152 -256 0
v -1184 -256 0
v -1344 -256 0
v -1376 -256 0
v -1408 -256 0
v -1440 -256 0
v -1472 -256 0
v -1504 -256 0
v -1536 -256 0
v -1568 -256 0
v -1600 -256 0
v -1632 -256 0
v -160 -480 0
v -192 -480 0
v -192 -448 0
v -160 -448 0
v -224 -480 0
v -224 -448 0
v -256 -480 0
v -256 -448 0
v -288 -480 0
v -288 -448 0
v -320 -480 0
v -320 -448 0
v -480 -480 0
v -512 -480 0
v -512 -448 0
v -480 -448 0
v -544 -480 0
v -544 -448 0
v -576 -480 0
v -576 -448 0
v -608 -480 0
v -608 -448 0
v -640 -480 0
v -640 -448 0
v -672 -480 0
v -672 -448 0
v -704 -480 0
v -704 -448 0
v -736 -480 0
v -736 -448 0
v -768 -480 0
v -768 -448 0
v -800 -480 0
v -800 -448 0
v -1120 -480 0
v -1152 -480 0
v -1152 -448 0
v -1120 -448 0
v -1184 -480 0
v -1184 -448 0
v -1216 -480 0
v -1216 -448 0
v -1248 -480 0
v -1248 -448 0
v -1280 -480 0
v -1280 -448 0
v -1312 -480 0
v -1312 -448 0
v -1344 -480 0
v -1344 -448 0
v -1376 -480 0
v -1376 -448 0
v -1408 -480 0
v -1408 -448 0
v -1440 -480 0
v -1440 -448 0
v -1472 -480 0
v -1472 -448 0
v -1504 -480 0
v -1504 -448 0
v -1536 -480 0
v -1536 -448 0
v -1568 -480 0
v -1568 -448 0
v -160 -512 0
v -192 -512 0
v -224 -512 0
v -256 -512 0
v -288 -512 0
v -320 -512 0
v -480 -512 0
v -512 -512 0
v -544 -512 0
v -576 -512 0
v -608 -512 0
v -640 -512 0
v -672 -512 0
v -704 -512 0
v -736 -512 0
v -768 -512 0
v -800 -512 0
v -1120 -512 0
v -1152 -512 0
v -1184 -512 0
v -1216 -512 0
v -1248 -512 0
v -1280 -512 0
v -1312 -512 0
v -1344 -512 0
v -1376 -512 0
v -1408 -512 0
v -1440 -512 0
v -1472 -512 0
v -1504 -512 0
v -1536 -512 0
v -1568 -512 0
v -160 -736 0
v -192 -736 0
v -192 -704 0
v -160 -704 0
v -224 -736 0
v -224 -704 0
v -256 -736 0
v -256 -704 0
v -288 -736 0
v -288 -704 0
v -320 -736 0
v -320 -704 0
v -480 -736 0
v -512 -736 0
v -512 -704 0
v -480 -704 0
v -544 -736 0
v -544 -704 0
v -576 -736 0
v -576 -704 0
v -608 -736 0
v -608 -704 0
v -640 -736 0
v -640 -704 0
v -672 -736 0
v -672 -704 0
v -704 -736 0
v -704 -704 0
v -736 -736 0
v -736 -704 0
v -768 -736 0
v -768 -704 0
v -800 -736 0
v -800 -704 0
v -960 -736 0
v -992 -736 0
v -992 -704 0
v -960 -704 0
v -1024 -736 0
v -1024 -704 0
v -1056 -736 0
v -1056 -704 0
v -1088 -736 0
v -1088 -704 0
v -1120 -736 0
v -1120 -704 0
v -160 -768 0
v -192 -768 0
v -224 -768 0
v -256 -768 0
v -288 -768 0
v -320 -768 0
v -480 -768 0
v -512 -768 0
v -544 -768 0
v -576 -768 0
v -608 -768 0
v -640 -768 0
v -672 -768 0
v -704 -768 0
v -736 -768 0
v -768 -768 0
v -800 -768 0
v -960 -768 0
v -992 -768 0
v -1024 -768 0
v -1056 -768 0
v -1088 -768 0
v -1120 -768 0
v -960 -992 0
v -992 -992 0
v -992 -960 0
v -960 -960 0
v -1024 -992 0
v -1024 -960 0
v -1056 -992 0
v -1056 -960 0
v -1088 -992 0
v -1088 -960 0
v -1120 -992 0
v -1120 -960 0
v -1152 -992 0
v -1152 -960 0
v -1184 -992 0
v -1184 -960 0
v -1216 -992 0
v -1216 -960 0
v -1248 -992 0
v -1248 -960 0
v -1280 -992 0
v -1280 -960 0
v -1312 -992 0
v -1312 -960 0
v -1344 -992 0
v -1344 -960 0
v -1376 -992 0
v -1376 -960 0
v -1408 -992 0
v -1408 -960 0
v -1440 -992 0
v -1440 -960 0
v -1472 -992 0
v -1472 -960 0
v -1504 -992 0
v -1504 -960 0
v -960 -1024 0
v -992 -1024 0
v -1024 -1024 0
v -1056 -1024 0
v -1088 -1024 0
v -1120 -1024 0
v -1152 -1024 0
v -1184 -1024 0
v -1216 -1024 0
v -1248 -1024 0
v -1280 -1024 0
v -1312 -1024 0
v -1344 -1024 0
v -1376 -1024 0
v -1408 -1024 0
v -1440 -1024 0
v -1472 -1024 0
v -1504 -1024 0

# Texture Coorindates (Count = 4)
vt 0.1740351 0.904884
vt 0.2172692 0.904884
vt 0.2172692 0.9522589
vt 0.1740351 0.9522589

# Normal
vn 0 0 -1

# Groups (Count = 1)
g mesh_[00]_[00]
f  1/1/1  2/2/1  3/3/1  4/4/1 
f  2/1/1  5/2/1  6/3/1  3/4/1 
f  7/1/1  8/2/1  2/3/1  1/4/1 
f  8/1/1  9/2/1  5/3/1  2/4/1 
f  10/1/1  11/2/1  8/3/1  7/4/1 
f  11/1/1  12/2/1  9/3/1  8/4/1 
f  13/1/1  14/2/1  11/3/1  10/4/1 
f  14/1/1  15/2/1  12/3/1  11/4/1 
f  16/1/1  17/2/1  14/3/1  13/4/1 
f  17/1/1  18/2/1  15/3/1  14/4/1 
f  19/1/1  20/2/1  17/3/1  16/4/1 
f  20/1/1  21/2/1  18/3/1  17/4/1 
f  22/1/1  23/2/1  20/3/1  19/4/1 
f  23/1/1  24/2/1  21/3/1  20/4/1 
f  24/1/1  25/2/1  26/3/1  21/4/1 
f  25/1/1  27/2/1  28/3/1  26/4/1 
f  27/1/1  29/2/1  30/3/1  28/4/1 
f  31/1/1  32/2/1  33/3/1  34/4/1 
f  32/1/1  35/2/1  36/3/1  33/4/1 
f  35/1/1  37/2/1  38/3/1  36/4/1 
f  37/1/1  39/2/1  40/3/1  38/4/1 
f  39/1/1  41/2/1  42/3/1  40/4/1 
f  43/1/1  44/2/1  45/3/1  46/4/1 
f  44/1/1  47/2/1  48/3/1  45/4/1 
f  47/1/1  49/2/1  50/3/1  48/4/1 
f  49/1/1  51/2/1  52/3/1  50/4/1 
f  51/1/1  53/2/1  54/3/1  52/4/1 
f  53/1/1  55/2/1  56/3/1  54/4/1 
f  55/1/1  57/2/1  58/3/1  56/4/1 
f  57/1/1  59/2/1  60/3/1  58/4/1 
f  59/1/1  61/2/1  62/3/1  60/4/1 
f  63/1/1  64/2/1  23/3/1  22/4/1 
f  64/1/1  65/2/1  24/3/1  23/4/1 
f  65/1/1  66/2/1  25/3/1  24/4/1 
f  66/1/1  67/2/1  27/3/1  25/4/1 
f  67/1/1  68/2/1  29/3/1  27/4/1 
f  69/1/1  70/2/1  32/3/1  31/4/1 
f  70/1/1  71/2/1  35/3/1  32/4/1 
f  71/1/1  72/2/1  37/3/1  35/4/1 
f  72/1/1  73/2/1  39/3/1  37/4/1 
f  73/1/1  74/2/1  41/3/1  39/4/1 
f  75/1/1  76/2/1  44/3/1  43/4/1 
f  76/1/1  77/2/1  47/3/1  44/4/1 
f  77/1/1  78/2/1  49/3/1  47/4/1 
f  78/1/1  79/2/1  51/3/1  49/4/1 
f  79/1/1  80/2/1  53/3/1  51/4/1 
f  80/1/1  81/2/1  55/3/1  53/4/1 
f  81/1/1  82/2/1  57/3/1  55/4/1 
f  82/1/1  83/2/1  59/3/1  57/4/1 
f  83/1/1  84/2/1  61/3/1  59/4/1 
f  85/1/1  86/2/1  87/3/1  88/4/1 
f  86/1/1  89/2/1  90/3/1  87/4/1 
f  89/1/1  91/2/1  92/3/1  90/4/1 
f  91/1/1  93/2/1  94/3/1  92/4/1 
f  93/1/1  95/2/1  96/3/1  94/4/1 
f  97/1/1  98/2/1  99/3/1  100/4/1 
f  98/1/1  101/2/1  102/3/1  99/4/1 
f  101/1/1  103/2/1  104/3/1  102/4/1 
f  103/1/1  105/2/1  106/3/1  104/4/1 
f  105/1/1  107/2/1  108/3/1  106/4/1 
f  107/1/1  109/2/1  110/3/1  108/4/1 
f  109/1/1  111/2/1  112/3/1  110/4/1 
f  111/1/1  113/2/1  114/3/1  112/4/1 
f  113/1/1  115/2/1  116/3/1  114/4/1 
f  115/1/1  117/2/1  118/3/1  116/4/1 
f  119/1/1  120/2/1  121/3/1  122/4/1 
f  120/1/1  123/2/1  124/3/1  121/4/1 
f  123/1/1  125/2/1  126/3/1  124/4/1 
f  125/1/1  127/2/1  128/3/1  126/4/1 
f  127/1/1  129/2/1  130/3/1  128/4/1 
f  129/1/1  131/2/1  132/3/1  130/4/1 
f  131/1/1  133/2/1  134/3/1  132/4/1 
f  133/1/1  135/2/1  136/3/1  134/4/1 
f  135/1/1  137/2/1  138/3/1  136/4/1 
f  137/1/1  139/2/1  140/3/1  138/4/1 
f  139/1/1  141/2/1  142/3/1  140/4/1 
f  141/1/1  143/2/1  144/3/1  142/4/1 
f  143/1/1  145/2/1  146/3/1  144/4/1 
f  145/1/1  147/2/1  148/3/1  146/4/1 
f  149/1/1  150/2/1  86/3/1  85/4/1 
f  150/1/1  151/2/1  89/3/1  86/4/1 
f  151/1/1  152/2/1  91/3/1  89/4/1 
f  152/1/1  153/2/1  93/3/1  91/4/1 
f  153/1/1  154/2/1  95/3/1  93/4/1 
f  155/1/1  156/2/1  98/3/1  97/4/1 
f  156/1/1  157/2/1  101/3/1  98/4/1 
f  157/1/1  158/2/1  103/3/1  101/4/1 
f  158/1/1  159/2/1  105/3/1  103/4/1 
f  159/1/1  160/2/1  107/3/1  105/4/1 
f  160/1/1  161/2/1  109/3/1  107/4/1 
f  161/1/1  162/2/1  111/3/1  109/4/1 
f  162/1/1  163/2/1  113/3/1  111/4/1 
f  163/1/1  164/2/1  115/3/1  113/4/1 
f  164/1/1  165/2/1  117/3/1  115/4/1 
f  166/1/1  167/2/1  120/3/1  119/4/1 
f  167/1/1  168/2/1  123/3/1  120/4/1 
f  168/1/1  169/2/1  125/3/1  123/4/1 
f  169/1/1  170/2/1  127/3/1  125/4/1 
f  170/1/1  171/2/1  129/3/1  127/4/1 
f  171/1/1  172/2/1  131/3/1  129/4/1 
f  172/1/1  173/2/1  133/3/1  131/4/1 
f  173/1/1  174/2/1  135/3/1  133/4/1 
f  174/1/1  175/2/1  137/3/1  135/4/1 
f  175/1/1  176/2/1  139/3/1  137/4/1 
f  176/1/1  177/2/1  141/3/1  139/4/1 
f  177/1/1  178/2/1  143/3/1  141/4/1 
f  178/1/1  179/2/1  145/3/1  143/4/1 
f  179/1/1  180/2/1  147/3/1  145/4/1 
f  181/1/1  182/2/1  183/3/1  184/4/1 
f  182/1/1  185/2/1  186/3/1  183/4/1 
f  185/1/1  187/2/1  188/3/1  186/4/1 
f  187/1/1  189/2/1  190/3/1  188/4/1 
f  189/1/1  191/2/1  192/3/1  190/4/1 
f  193/1/1  194/2/1  195/3/1  196/4/1 
f  194/1/1  197/2/1  198/3/1  195/4/1 
f  197/1/1  199/2/1  200/3/1  198/4/1 
f  199/1/1  201/2/1  202/3/1  200/4/1 
f  201/1/1  203/2/1  204/3/1  202/4/1 
f  203/1/1  205/2/1  206/3/1  204/4/1 
f  205/1/1  207/2/1  208/3/1  206/4/1 
f  207/1/1  209/2/1  210/3/1  208/4/1 
f  209/1/1  211/2/1  212/3/1  210/4/1 
f  211/1/1  213/2/1  214/3/1  212/4/1 
f  215/1/1  216/2/1  217/3/1  218/4/1 
f  216/1/1  219/2/1  220/3/1  217/4/1 
f  219/1/1  221/2/1  222/3/1  220/4/1 
f  221/1/1  223/2/1  224/3/1  222/4/1 
f  223/1/1  225/2/1  226/3/1  224/4/1 
f  227/1/1  228/2/1  182/3/1  181/4/1 
f  228/1/1  229/2/1  185/3/1  182/4/1 
f  229/1/1  230/2/1  187/3/1  185/4/1 
f  230/1/1  231/2/1  189/3/1  187/4/1 
f  231/1/1  232/2/1  191/3/1  189/4/1 
f  233/1/1  234/2/1  194/3/1  193/4/1 
f  234/1/1  235/2/1  197/3/1  194/4/1 
f  235/1/1  236/2/1  199/3/1  197/4/1 
f  236/1/1  237/2/1  201/3/1  199/4/1 
f  237/1/1  238/2/1  203/3/1  201/4/1 
f  238/1/1  239/2/1  205/3/1  203/4/1 
f  239/1/1  240/2/1  207/3/1  205/4/1 
f  240/1/1  241/2/1  209/3/1  207/4/1 
f  241/1/1  242/2/1  211/3/1  209/4/1 
f  242/1/1  243/2/1  213/3/1  211/4/1 
f  244/1/1  245/2/1  216/3/1  215/4/1 
f  245/1/1  246/2/1  219/3/1  216/4/1 
f  246/1/1  247/2/1  221/3/1  219/4/1 
f  247/1/1  248/2/1  223/3/1  221/4/1 
f  248/1/1  249/2/1  225/3/1  223/4/1 
f  250/1/1  251/2/1  252/3/1  253/4/1 
f  251/1/1  254/2/1  255/3/1  252/4/1 
f  254/1/1  256/2/1  257/3/1  255/4/1 
f  256/1/1  258/2/1  259/3/1  257/4/1 
f  258/1/1  260/2/1  261/3/1  259/4/1 
f  260/1/1  262/2/1  263/3/1  261/4/1 
f  262/1/1  264/2/1  265/3/1  263/4/1 
f  264/1/1  266/2/1  267/3/1  265/4/1 
f  266/1/1  268/2/1  269/3/1  267/4/1 
f  268/1/1  270/2/1  271/3/1  269/4/1 
f  270/1/1  272/2/1  273/3/1  271/4/1 
f  272/1/1  274/2/1  275/3/1  273/4/1 
f  274/1/1  276/2/1  277/3/1  275/4/1 
f  276/1/1  278/2/1  279/3/1  277/4/1 
f  278/1/1  280/2/1  281/3/1  279/4/1 
f  280/1/1  282/2/1  283/3/1  281/4/1 
f  282/1/1  284/2/1  285/3/1  283/4/1 
f  286/1/1  287/2/1  251/3/1  250/4/1 
f  287/1/1  288/2/1  254/3/1  251/4/1 
f  288/1/1  289/2/1  256/3/1  254/4/1 
f  289/1/1  290/2/1  258/3/1  256/4/1 
f  290/1/1  291/2/1  260/3/1  258/4/1 
f  291/1/1  292/2/1  262/3/1  260/4/1 
f  292/1/1  293/2/1  264/3/1  262/4/1 
f  293/1/1  294/2/1  266/3/1  264/4/1 
f  294/1/1  295/2/1  268/3/1  266/4/1 
f  295/1/1  296/2/1  270/3/1  268/4/1 
f  296/1/1  297/2/1  272/3/1  270/4/1 
f  297/1/1  298/2/1  274/3/1  272/4/1 
f  298/1/1  299/2/1  276/3/1  274/4/1 
f  299/1/1  300/2/1  278/3/1  276/4/1 
f  300/1/1  301/2/1  280/3/1  278/4/1 
f  301/1/1  302/2/1  282/3/1  280/4/1 
f  302/1/1  303/2/1  284/3/1  282/4/1 
