# Wavefront OBJ file automatically generated by Tiled2Unity

# Vertices (Count = 351)
v 0 -32 0
v -32 -32 0
v -32 0 0
v 0 0 0
v -1728 -32 0
v -1760 -32 0
v -1760 0 0
v -1728 0 0
v -1792 -32 0
v -1792 0 0
v 0 -64 0
v -32 -64 0
v -1728 -64 0
v -1760 -64 0
v -1792 -64 0
v 0 -96 0
v -32 -96 0
v -1728 -96 0
v -1760 -96 0
v -1792 -96 0
v 0 -128 0
v -32 -128 0
v -1728 -128 0
v -1760 -128 0
v -1792 -128 0
v 0 -160 0
v -32 -160 0
v -1728 -160 0
v -1760 -160 0
v -1792 -160 0
v 0 -192 0
v -32 -192 0
v -1728 -192 0
v -1760 -192 0
v -1792 -192 0
v 0 -224 0
v -32 -224 0
v -1728 -224 0
v -1760 -224 0
v -1792 -224 0
v 0 -256 0
v -32 -256 0
v -1728 -256 0
v -1760 -256 0
v -1792 -256 0
v 0 -288 0
v -32 -288 0
v -1728 -288 0
v -1760 -288 0
v -1792 -288 0
v 0 -320 0
v -32 -320 0
v -1728 -320 0
v -1760 -320 0
v -1792 -320 0
v 0 -352 0
v -32 -352 0
v -1728 -352 0
v -1760 -352 0
v -1792 -352 0
v 0 -384 0
v -32 -384 0
v -1728 -384 0
v -1760 -384 0
v -1792 -384 0
v 0 -416 0
v -32 -416 0
v -1728 -416 0
v -1760 -416 0
v -1792 -416 0
v 0 -448 0
v -32 -448 0
v -1728 -448 0
v -1760 -448 0
v -1792 -448 0
v 0 -480 0
v -32 -480 0
v -1728 -480 0
v -1760 -480 0
v -1792 -480 0
v 0 -512 0
v -32 -512 0
v -64 -512 0
v -64 -480 0
v -96 -512 0
v -96 -480 0
v -128 -512 0
v -128 -480 0
v -160 -512 0
v -160 -480 0
v -192 -512 0
v -192 -480 0
v -224 -512 0
v -224 -480 0
v -256 -512 0
v -256 -480 0
v -288 -512 0
v -288 -480 0
v -320 -512 0
v -320 -480 0
v -352 -512 0
v -352 -480 0
v -384 -512 0
v -384 -480 0
v -416 -512 0
v -416 -480 0
v -448 -512 0
v -448 -480 0
v -480 -512 0
v -480 -480 0
v -512 -512 0
v -512 -480 0
v -544 -512 0
v -544 -480 0
v -800 -512 0
v -832 -512 0
v -832 -480 0
v -800 -480 0
v -864 -512 0
v -864 -480 0
v -896 -512 0
v -896 -480 0
v -928 -512 0
v -928 -480 0
v -960 -512 0
v -960 -480 0
v -992 -512 0
v -992 -480 0
v -1024 -512 0
v -1024 -480 0
v -1056 -512 0
v -1056 -480 0
v -1088 -512 0
v -1088 -480 0
v -1120 -512 0
v -1120 -480 0
v -1152 -512 0
v -1152 -480 0
v -1184 -512 0
v -1184 -480 0
v -1216 -512 0
v -1216 -480 0
v -1248 -512 0
v -1248 -480 0
v -1280 -512 0
v -1280 -480 0
v -1312 -512 0
v -1312 -480 0
v -1344 -512 0
v -1344 -480 0
v -1376 -512 0
v -1376 -480 0
v -1408 -512 0
v -1408 -480 0
v -1440 -512 0
v -1440 -480 0
v -1472 -512 0
v -1472 -480 0
v -1504 -512 0
v -1504 -480 0
v -1536 -512 0
v -1536 -480 0
v -1568 -512 0
v -1568 -480 0
v -1600 -512 0
v -1600 -480 0
v -1632 -512 0
v -1632 -480 0
v -1664 -512 0
v -1664 -480 0
v -1696 -512 0
v -1696 -480 0
v -1728 -512 0
v -1760 -512 0
v -1792 -512 0
v 0 -544 0
v -32 -544 0
v -1728 -544 0
v -1760 -544 0
v -1792 -544 0
v 0 -576 0
v -32 -576 0
v -1728 -576 0
v -1760 -576 0
v -1792 -576 0
v 0 -608 0
v -32 -608 0
v -1728 -608 0
v -1760 -608 0
v -1792 -608 0
v 0 -640 0
v -32 -640 0
v -1728 -640 0
v -1760 -640 0
v -1792 -640 0
v 0 -672 0
v -32 -672 0
v -1728 -672 0
v -1760 -672 0
v -1792 -672 0
v 0 -704 0
v -32 -704 0
v -1728 -704 0
v -1760 -704 0
v -1792 -704 0
v 0 -736 0
v -32 -736 0
v -512 -736 0
v -544 -736 0
v -544 -704 0
v -512 -704 0
v -576 -736 0
v -576 -704 0
v -608 -736 0
v -608 -704 0
v -640 -736 0
v -640 -704 0
v -672 -736 0
v -672 -704 0
v -704 -736 0
v -704 -704 0
v -736 -736 0
v -736 -704 0
v -768 -736 0
v -768 -704 0
v -800 -736 0
v -800 -704 0
v -832 -736 0
v -832 -704 0
v -864 -736 0
v -864 -704 0
v -896 -736 0
v -896 -704 0
v -928 -736 0
v -928 -704 0
v -960 -736 0
v -960 -704 0
v -992 -736 0
v -992 -704 0
v -1024 -736 0
v -1024 -704 0
v -1056 -736 0
v -1056 -704 0
v -1088 -736 0
v -1088 -704 0
v -1120 -736 0
v -1120 -704 0
v -1152 -736 0
v -1152 -704 0
v -1184 -736 0
v -1184 -704 0
v -1216 -736 0
v -1216 -704 0
v -1248 -736 0
v -1248 -704 0
v -1280 -736 0
v -1280 -704 0
v -1312 -736 0
v -1312 -704 0
v -1344 -736 0
v -1344 -704 0
v -1376 -736 0
v -1376 -704 0
v -1728 -736 0
v -1760 -736 0
v -1792 -736 0
v 0 -768 0
v -32 -768 0
v -512 -768 0
v -544 -768 0
v -1728 -768 0
v -1760 -768 0
v -1792 -768 0
v 0 -800 0
v -32 -800 0
v -512 -800 0
v -544 -800 0
v -1728 -800 0
v -1760 -800 0
v -1792 -800 0
v 0 -832 0
v -32 -832 0
v -512 -832 0
v -544 -832 0
v -1728 -832 0
v -1760 -832 0
v -1792 -832 0
v 0 -864 0
v -32 -864 0
v -512 -864 0
v -544 -864 0
v -1728 -864 0
v -1760 -864 0
v -1792 -864 0
v 0 -896 0
v -32 -896 0
v -512 -896 0
v -544 -896 0
v -1728 -896 0
v -1760 -896 0
v -1792 -896 0
v 0 -928 0
v -32 -928 0
v -64 -928 0
v -64 -896 0
v -96 -928 0
v -96 -896 0
v -128 -928 0
v -128 -896 0
v -160 -928 0
v -160 -896 0
v -192 -928 0
v -192 -896 0
v -224 -928 0
v -224 -896 0
v -256 -928 0
v -256 -896 0
v -288 -928 0
v -288 -896 0
v -320 -928 0
v -320 -896 0
v -352 -928 0
v -352 -896 0
v -384 -928 0
v -384 -896 0
v -416 -928 0
v -416 -896 0
v -448 -928 0
v -448 -896 0
v -480 -928 0
v -480 -896 0
v -512 -928 0
v -544 -928 0
v -1728 -928 0
v -1760 -928 0
v -1792 -928 0
v 0 -960 0
v -32 -960 0
v -1728 -960 0
v -1760 -960 0
v -1792 -960 0
v 0 -992 0
v -32 -992 0
v -1728 -992 0
v -1760 -992 0
v -1792 -992 0
v 0 -1024 0
v -32 -1024 0
v -1728 -1024 0
v -1760 -1024 0
v -1792 -1024 0

# Texture Coorindates (Count = 20)
vt 0.900122 0.0001220703
vt 0.9998779 0.0001220703
vt 0.9998779 0.4998779
vt 0.900122 0.4998779
vt 0.2001221 0.0001220703
vt 0.2998779 0.0001220703
vt 0.2998779 0.4998779
vt 0.2001221 0.4998779
vt 0.4001221 0.0001220703
vt 0.4998779 0.0001220703
vt 0.4998779 0.4998779
vt 0.4001221 0.4998779
vt 0.8001221 0.5001221
vt 0.8998779 0.5001221
vt 0.8998779 0.9998779
vt 0.8001221 0.9998779
vt 0.7001221 0.5001221
vt 0.7998779 0.5001221
vt 0.7998779 0.9998779
vt 0.7001221 0.9998779

# Normal
vn 0 0 -1

# Groups (Count = 1)
g mesh_[01]_[00]
f  1/1/1  2/2/1  3/3/1  4/4/1 
f  5/5/1  6/6/1  7/7/1  8/8/1 
f  6/9/1  9/10/1  10/11/1  7/12/1 
f  11/1/1  12/2/1  2/3/1  1/4/1 
f  13/5/1  14/6/1  6/7/1  5/8/1 
f  14/9/1  15/10/1  9/11/1  6/12/1 
f  16/1/1  17/2/1  12/3/1  11/4/1 
f  18/5/1  19/6/1  14/7/1  13/8/1 
f  19/9/1  20/10/1  15/11/1  14/12/1 
f  21/1/1  22/2/1  17/3/1  16/4/1 
f  23/5/1  24/6/1  19/7/1  18/8/1 
f  24/9/1  25/10/1  20/11/1  19/12/1 
f  26/1/1  27/2/1  22/3/1  21/4/1 
f  28/5/1  29/6/1  24/7/1  23/8/1 
f  29/9/1  30/10/1  25/11/1  24/12/1 
f  31/1/1  32/2/1  27/3/1  26/4/1 
f  33/5/1  34/6/1  29/7/1  28/8/1 
f  34/9/1  35/10/1  30/11/1  29/12/1 
f  36/1/1  37/2/1  32/3/1  31/4/1 
f  38/5/1  39/6/1  34/7/1  33/8/1 
f  39/9/1  40/10/1  35/11/1  34/12/1 
f  41/1/1  42/2/1  37/3/1  36/4/1 
f  43/5/1  44/6/1  39/7/1  38/8/1 
f  44/9/1  45/10/1  40/11/1  39/12/1 
f  46/1/1  47/2/1  42/3/1  41/4/1 
f  48/5/1  49/6/1  44/7/1  43/8/1 
f  49/9/1  50/10/1  45/11/1  44/12/1 
f  51/1/1  52/2/1  47/3/1  46/4/1 
f  53/5/1  54/6/1  49/7/1  48/8/1 
f  54/9/1  55/10/1  50/11/1  49/12/1 
f  56/1/1  57/2/1  52/3/1  51/4/1 
f  58/5/1  59/6/1  54/7/1  53/8/1 
f  59/9/1  60/10/1  55/11/1  54/12/1 
f  61/1/1  62/2/1  57/3/1  56/4/1 
f  63/5/1  64/6/1  59/7/1  58/8/1 
f  64/9/1  65/10/1  60/11/1  59/12/1 
f  66/1/1  67/2/1  62/3/1  61/4/1 
f  68/5/1  69/6/1  64/7/1  63/8/1 
f  69/9/1  70/10/1  65/11/1  64/12/1 
f  71/1/1  72/2/1  67/3/1  66/4/1 
f  73/5/1  74/6/1  69/7/1  68/8/1 
f  74/9/1  75/10/1  70/11/1  69/12/1 
f  76/1/1  77/2/1  72/3/1  71/4/1 
f  78/5/1  79/6/1  74/7/1  73/8/1 
f  79/9/1  80/10/1  75/11/1  74/12/1 
f  81/1/1  82/2/1  77/3/1  76/4/1 
f  82/13/1  83/14/1  84/15/1  77/16/1 
f  83/13/1  85/14/1  86/15/1  84/16/1 
f  85/13/1  87/14/1  88/15/1  86/16/1 
f  87/13/1  89/14/1  90/15/1  88/16/1 
f  89/13/1  91/14/1  92/15/1  90/16/1 
f  91/13/1  93/14/1  94/15/1  92/16/1 
f  93/13/1  95/14/1  96/15/1  94/16/1 
f  95/13/1  97/14/1  98/15/1  96/16/1 
f  97/13/1  99/14/1  100/15/1  98/16/1 
f  99/13/1  101/14/1  102/15/1  100/16/1 
f  101/13/1  103/14/1  104/15/1  102/16/1 
f  103/13/1  105/14/1  106/15/1  104/16/1 
f  105/13/1  107/14/1  108/15/1  106/16/1 
f  107/13/1  109/14/1  110/15/1  108/16/1 
f  109/13/1  111/14/1  112/15/1  110/16/1 
f  111/13/1  113/14/1  114/15/1  112/16/1 
f  115/13/1  116/14/1  117/15/1  118/16/1 
f  116/13/1  119/14/1  120/15/1  117/16/1 
f  119/13/1  121/14/1  122/15/1  120/16/1 
f  121/13/1  123/14/1  124/15/1  122/16/1 
f  123/13/1  125/14/1  126/15/1  124/16/1 
f  125/13/1  127/14/1  128/15/1  126/16/1 
f  127/13/1  129/14/1  130/15/1  128/16/1 
f  129/13/1  131/14/1  132/15/1  130/16/1 
f  131/13/1  133/14/1  134/15/1  132/16/1 
f  133/13/1  135/14/1  136/15/1  134/16/1 
f  135/13/1  137/14/1  138/15/1  136/16/1 
f  137/13/1  139/14/1  140/15/1  138/16/1 
f  139/13/1  141/14/1  142/15/1  140/16/1 
f  141/13/1  143/14/1  144/15/1  142/16/1 
f  143/13/1  145/14/1  146/15/1  144/16/1 
f  145/13/1  147/14/1  148/15/1  146/16/1 
f  147/13/1  149/14/1  150/15/1  148/16/1 
f  149/13/1  151/14/1  152/15/1  150/16/1 
f  151/13/1  153/14/1  154/15/1  152/16/1 
f  153/13/1  155/14/1  156/15/1  154/16/1 
f  155/13/1  157/14/1  158/15/1  156/16/1 
f  157/13/1  159/14/1  160/15/1  158/16/1 
f  159/13/1  161/14/1  162/15/1  160/16/1 
f  161/13/1  163/14/1  164/15/1  162/16/1 
f  163/13/1  165/14/1  166/15/1  164/16/1 
f  165/13/1  167/14/1  168/15/1  166/16/1 
f  167/13/1  169/14/1  170/15/1  168/16/1 
f  169/13/1  171/14/1  172/15/1  170/16/1 
f  171/13/1  173/14/1  78/15/1  172/16/1 
f  173/5/1  174/6/1  79/7/1  78/8/1 
f  174/9/1  175/10/1  80/11/1  79/12/1 
f  176/1/1  177/2/1  82/3/1  81/4/1 
f  178/5/1  179/6/1  174/7/1  173/8/1 
f  179/9/1  180/10/1  175/11/1  174/12/1 
f  181/1/1  182/2/1  177/3/1  176/4/1 
f  183/5/1  184/6/1  179/7/1  178/8/1 
f  184/9/1  185/10/1  180/11/1  179/12/1 
f  186/1/1  187/2/1  182/3/1  181/4/1 
f  188/5/1  189/6/1  184/7/1  183/8/1 
f  189/9/1  190/10/1  185/11/1  184/12/1 
f  191/1/1  192/2/1  187/3/1  186/4/1 
f  193/5/1  194/6/1  189/7/1  188/8/1 
f  194/9/1  195/10/1  190/11/1  189/12/1 
f  196/1/1  197/2/1  192/3/1  191/4/1 
f  198/5/1  199/6/1  194/7/1  193/8/1 
f  199/9/1  200/10/1  195/11/1  194/12/1 
f  201/1/1  202/2/1  197/3/1  196/4/1 
f  203/5/1  204/6/1  199/7/1  198/8/1 
f  204/9/1  205/10/1  200/11/1  199/12/1 
f  206/1/1  207/2/1  202/3/1  201/4/1 
f  208/13/1  209/14/1  210/15/1  211/16/1 
f  209/13/1  212/14/1  213/15/1  210/16/1 
f  212/13/1  214/14/1  215/15/1  213/16/1 
f  214/13/1  216/14/1  217/15/1  215/16/1 
f  216/13/1  218/14/1  219/15/1  217/16/1 
f  218/13/1  220/14/1  221/15/1  219/16/1 
f  220/13/1  222/14/1  223/15/1  221/16/1 
f  222/13/1  224/14/1  225/15/1  223/16/1 
f  224/13/1  226/14/1  227/15/1  225/16/1 
f  226/13/1  228/14/1  229/15/1  227/16/1 
f  228/13/1  230/14/1  231/15/1  229/16/1 
f  230/13/1  232/14/1  233/15/1  231/16/1 
f  232/13/1  234/14/1  235/15/1  233/16/1 
f  234/13/1  236/14/1  237/15/1  235/16/1 
f  236/13/1  238/14/1  239/15/1  237/16/1 
f  238/13/1  240/14/1  241/15/1  239/16/1 
f  240/13/1  242/14/1  243/15/1  241/16/1 
f  242/13/1  244/14/1  245/15/1  243/16/1 
f  244/13/1  246/14/1  247/15/1  245/16/1 
f  246/13/1  248/14/1  249/15/1  247/16/1 
f  248/13/1  250/14/1  251/15/1  249/16/1 
f  250/13/1  252/14/1  253/15/1  251/16/1 
f  252/13/1  254/14/1  255/15/1  253/16/1 
f  254/13/1  256/14/1  257/15/1  255/16/1 
f  256/13/1  258/14/1  259/15/1  257/16/1 
f  258/13/1  260/14/1  261/15/1  259/16/1 
f  260/13/1  262/14/1  263/15/1  261/16/1 
f  264/5/1  265/6/1  204/7/1  203/8/1 
f  265/9/1  266/10/1  205/11/1  204/12/1 
f  267/1/1  268/2/1  207/3/1  206/4/1 
f  269/9/1  270/10/1  209/11/1  208/12/1 
f  271/5/1  272/6/1  265/7/1  264/8/1 
f  272/9/1  273/10/1  266/11/1  265/12/1 
f  274/1/1  275/2/1  268/3/1  267/4/1 
f  276/9/1  277/10/1  270/11/1  269/12/1 
f  278/5/1  279/6/1  272/7/1  271/8/1 
f  279/9/1  280/10/1  273/11/1  272/12/1 
f  281/1/1  282/2/1  275/3/1  274/4/1 
f  283/9/1  284/10/1  277/11/1  276/12/1 
f  285/5/1  286/6/1  279/7/1  278/8/1 
f  286/9/1  287/10/1  280/11/1  279/12/1 
f  288/1/1  289/2/1  282/3/1  281/4/1 
f  290/9/1  291/10/1  284/11/1  283/12/1 
f  292/5/1  293/6/1  286/7/1  285/8/1 
f  293/9/1  294/10/1  287/11/1  286/12/1 
f  295/1/1  296/2/1  289/3/1  288/4/1 
f  297/9/1  298/10/1  291/11/1  290/12/1 
f  299/5/1  300/6/1  293/7/1  292/8/1 
f  300/9/1  301/10/1  294/11/1  293/12/1 
f  302/1/1  303/2/1  296/3/1  295/4/1 
f  303/17/1  304/18/1  305/19/1  296/20/1 
f  304/17/1  306/18/1  307/19/1  305/20/1 
f  306/17/1  308/18/1  309/19/1  307/20/1 
f  308/17/1  310/18/1  311/19/1  309/20/1 
f  310/17/1  312/18/1  313/19/1  311/20/1 
f  312/17/1  314/18/1  315/19/1  313/20/1 
f  314/17/1  316/18/1  317/19/1  315/20/1 
f  316/17/1  318/18/1  319/19/1  317/20/1 
f  318/17/1  320/18/1  321/19/1  319/20/1 
f  320/17/1  322/18/1  323/19/1  321/20/1 
f  322/17/1  324/18/1  325/19/1  323/20/1 
f  324/17/1  326/18/1  327/19/1  325/20/1 
f  326/17/1  328/18/1  329/19/1  327/20/1 
f  328/17/1  330/18/1  331/19/1  329/20/1 
f  330/17/1  332/18/1  297/19/1  331/20/1 
f  332/9/1  333/10/1  298/11/1  297/12/1 
f  334/5/1  335/6/1  300/7/1  299/8/1 
f  335/9/1  336/10/1  301/11/1  300/12/1 
f  337/1/1  338/2/1  303/3/1  302/4/1 
f  339/5/1  340/6/1  335/7/1  334/8/1 
f  340/9/1  341/10/1  336/11/1  335/12/1 
f  342/1/1  343/2/1  338/3/1  337/4/1 
f  344/5/1  345/6/1  340/7/1  339/8/1 
f  345/9/1  346/10/1  341/11/1  340/12/1 
f  347/9/1  348/10/1  343/11/1  342/12/1 
f  349/5/1  350/6/1  345/7/1  344/8/1 
f  350/9/1  351/10/1  346/11/1  345/12/1 
