# Wavefront OBJ file automatically generated by Tiled2Unity

# Vertices (Count = 549)
v 0 -32 0
v -32 -32 0
v -32 0 0
v 0 0 0
v -64 -32 0
v -64 0 0
v -800 -32 0
v -832 -32 0
v -832 0 0
v -800 0 0
v -864 -32 0
v -864 0 0
v -1728 -32 0
v -1760 -32 0
v -1760 0 0
v -1728 0 0
v -1792 -32 0
v -1792 0 0
v 0 -64 0
v -32 -64 0
v -64 -64 0
v -800 -64 0
v -832 -64 0
v -864 -64 0
v -1728 -64 0
v -1760 -64 0
v -1792 -64 0
v 0 -96 0
v -32 -96 0
v -64 -96 0
v -800 -96 0
v -832 -96 0
v -864 -96 0
v -1728 -96 0
v -1760 -96 0
v -1792 -96 0
v 0 -128 0
v -32 -128 0
v -64 -128 0
v -800 -128 0
v -832 -128 0
v -864 -128 0
v -1728 -128 0
v -1760 -128 0
v -1792 -128 0
v 0 -160 0
v -32 -160 0
v -64 -160 0
v -800 -160 0
v -832 -160 0
v -864 -160 0
v -1728 -160 0
v -1760 -160 0
v -1792 -160 0
v 0 -192 0
v -32 -192 0
v -64 -192 0
v -800 -192 0
v -832 -192 0
v -864 -192 0
v -1728 -192 0
v -1760 -192 0
v -1792 -192 0
v 0 -224 0
v -32 -224 0
v -64 -224 0
v -800 -224 0
v -832 -224 0
v -864 -224 0
v -1728 -224 0
v -1760 -224 0
v -1792 -224 0
v 0 -256 0
v -32 -256 0
v -64 -256 0
v -800 -256 0
v -832 -256 0
v -864 -256 0
v -1728 -256 0
v -1760 -256 0
v -1792 -256 0
v 0 -288 0
v -32 -288 0
v -64 -288 0
v -576 -288 0
v -608 -288 0
v -608 -256 0
v -576 -256 0
v -640 -288 0
v -640 -256 0
v -672 -288 0
v -672 -256 0
v -704 -288 0
v -704 -256 0
v -736 -288 0
v -736 -256 0
v -768 -288 0
v -768 -256 0
v -800 -288 0
v -832 -288 0
v -864 -288 0
v -896 -288 0
v -896 -256 0
v -928 -288 0
v -928 -256 0
v -960 -288 0
v -960 -256 0
v -992 -288 0
v -992 -256 0
v -1024 -288 0
v -1024 -256 0
v -1056 -288 0
v -1056 -256 0
v -1088 -288 0
v -1088 -256 0
v -1728 -288 0
v -1760 -288 0
v -1792 -288 0
v 0 -320 0
v -32 -320 0
v -64 -320 0
v -576 -320 0
v -608 -320 0
v -640 -320 0
v -672 -320 0
v -704 -320 0
v -736 -320 0
v -768 -320 0
v -800 -320 0
v -832 -320 0
v -864 -320 0
v -896 -320 0
v -928 -320 0
v -960 -320 0
v -992 -320 0
v -1024 -320 0
v -1056 -320 0
v -1088 -320 0
v -1728 -320 0
v -1760 -320 0
v -1792 -320 0
v 0 -352 0
v -32 -352 0
v -64 -352 0
v -1728 -352 0
v -1760 -352 0
v -1792 -352 0
v 0 -384 0
v -32 -384 0
v -64 -384 0
v -1728 -384 0
v -1760 -384 0
v -1792 -384 0
v 0 -416 0
v -32 -416 0
v -64 -416 0
v -1728 -416 0
v -1760 -416 0
v -1792 -416 0
v 0 -448 0
v -32 -448 0
v -64 -448 0
v -1728 -448 0
v -1760 -448 0
v -1792 -448 0
v 0 -480 0
v -32 -480 0
v -64 -480 0
v -1728 -480 0
v -1760 -480 0
v -1792 -480 0
v 0 -512 0
v -32 -512 0
v -64 -512 0
v -416 -512 0
v -448 -512 0
v -448 -480 0
v -416 -480 0
v -480 -512 0
v -480 -480 0
v -512 -512 0
v -512 -480 0
v -544 -512 0
v -544 -480 0
v -576 -512 0
v -576 -480 0
v -608 -512 0
v -608 -480 0
v -640 -512 0
v -640 -480 0
v -672 -512 0
v -672 -480 0
v -704 -512 0
v -704 -480 0
v -736 -512 0
v -736 -480 0
v -768 -512 0
v -768 -480 0
v -800 -512 0
v -800 -480 0
v -832 -512 0
v -832 -480 0
v -864 -512 0
v -864 -480 0
v -896 -512 0
v -896 -480 0
v -928 -512 0
v -928 -480 0
v -960 -512 0
v -960 -480 0
v -992 -512 0
v -992 -480 0
v -1024 -512 0
v -1024 -480 0
v -1056 -512 0
v -1056 -480 0
v -1088 -512 0
v -1088 -480 0
v -1120 -512 0
v -1120 -480 0
v -1152 -512 0
v -1152 -480 0
v -1184 -512 0
v -1184 -480 0
v -1216 -512 0
v -1216 -480 0
v -1248 -512 0
v -1248 -480 0
v -1280 -512 0
v -1280 -480 0
v -1312 -512 0
v -1312 -480 0
v -1344 -512 0
v -1344 -480 0
v -1376 -512 0
v -1376 -480 0
v -1408 -512 0
v -1408 -480 0
v -1504 -512 0
v -1536 -512 0
v -1536 -480 0
v -1504 -480 0
v -1568 -512 0
v -1568 -480 0
v -1600 -512 0
v -1600 -480 0
v -1632 -512 0
v -1632 -480 0
v -1664 -512 0
v -1664 -480 0
v -1696 -512 0
v -1696 -480 0
v -1728 -512 0
v -1760 -512 0
v -1792 -512 0
v 0 -544 0
v -32 -544 0
v -64 -544 0
v -416 -544 0
v -448 -544 0
v -480 -544 0
v -512 -544 0
v -544 -544 0
v -576 -544 0
v -608 -544 0
v -640 -544 0
v -672 -544 0
v -704 -544 0
v -736 -544 0
v -768 -544 0
v -800 -544 0
v -832 -544 0
v -864 -544 0
v -896 -544 0
v -928 -544 0
v -960 -544 0
v -992 -544 0
v -1024 -544 0
v -1056 -544 0
v -1088 -544 0
v -1120 -544 0
v -1152 -544 0
v -1184 -544 0
v -1216 -544 0
v -1248 -544 0
v -1280 -544 0
v -1312 -544 0
v -1344 -544 0
v -1376 -544 0
v -1408 -544 0
v -1504 -544 0
v -1536 -544 0
v -1568 -544 0
v -1600 -544 0
v -1632 -544 0
v -1664 -544 0
v -1696 -544 0
v -1728 -544 0
v -1760 -544 0
v -1792 -544 0
v 0 -576 0
v -32 -576 0
v -64 -576 0
v -1728 -576 0
v -1760 -576 0
v -1792 -576 0
v 0 -608 0
v -32 -608 0
v -64 -608 0
v -96 -608 0
v -96 -576 0
v -128 -608 0
v -128 -576 0
v -160 -608 0
v -160 -576 0
v -192 -608 0
v -192 -576 0
v -224 -608 0
v -224 -576 0
v -256 -608 0
v -256 -576 0
v -288 -608 0
v -288 -576 0
v -320 -608 0
v -320 -576 0
v -1728 -608 0
v -1760 -608 0
v -1792 -608 0
v 0 -640 0
v -32 -640 0
v -64 -640 0
v -96 -640 0
v -128 -640 0
v -160 -640 0
v -192 -640 0
v -224 -640 0
v -256 -640 0
v -288 -640 0
v -320 -640 0
v -1728 -640 0
v -1760 -640 0
v -1792 -640 0
v 0 -672 0
v -32 -672 0
v -64 -672 0
v -1728 -672 0
v -1760 -672 0
v -1792 -672 0
v 0 -704 0
v -32 -704 0
v -64 -704 0
v -1728 -704 0
v -1760 -704 0
v -1792 -704 0
v 0 -736 0
v -32 -736 0
v -64 -736 0
v -1728 -736 0
v -1760 -736 0
v -1792 -736 0
v 0 -768 0
v -32 -768 0
v -64 -768 0
v -288 -768 0
v -320 -768 0
v -320 -736 0
v -288 -736 0
v -352 -768 0
v -352 -736 0
v -384 -768 0
v -384 -736 0
v -416 -768 0
v -416 -736 0
v -448 -768 0
v -448 -736 0
v -480 -768 0
v -480 -736 0
v -512 -768 0
v -512 -736 0
v -544 -768 0
v -544 -736 0
v -576 -768 0
v -576 -736 0
v -608 -768 0
v -608 -736 0
v -640 -768 0
v -640 -736 0
v -672 -768 0
v -672 -736 0
v -704 -768 0
v -704 -736 0
v -736 -768 0
v -736 -736 0
v -768 -768 0
v -768 -736 0
v -800 -768 0
v -800 -736 0
v -832 -768 0
v -832 -736 0
v -864 -768 0
v -864 -736 0
v -896 -768 0
v -896 -736 0
v -928 -768 0
v -928 -736 0
v -960 -768 0
v -960 -736 0
v -992 -768 0
v -992 -736 0
v -1024 -768 0
v -1024 -736 0
v -1056 -768 0
v -1056 -736 0
v -1088 -768 0
v -1088 -736 0
v -1120 -768 0
v -1120 -736 0
v -1152 -768 0
v -1152 -736 0
v -1184 -768 0
v -1184 -736 0
v -1216 -768 0
v -1216 -736 0
v -1248 -768 0
v -1248 -736 0
v -1280 -768 0
v -1280 -736 0
v -1312 -768 0
v -1312 -736 0
v -1344 -768 0
v -1344 -736 0
v -1376 -768 0
v -1376 -736 0
v -1408 -768 0
v -1408 -736 0
v -1440 -768 0
v -1440 -736 0
v -1472 -768 0
v -1472 -736 0
v -1504 -768 0
v -1504 -736 0
v -1536 -768 0
v -1536 -736 0
v -1568 -768 0
v -1568 -736 0
v -1600 -768 0
v -1600 -736 0
v -1632 -768 0
v -1632 -736 0
v -1664 -768 0
v -1664 -736 0
v -1696 -768 0
v -1696 -736 0
v -1728 -768 0
v -1760 -768 0
v -1792 -768 0
v 0 -800 0
v -32 -800 0
v -64 -800 0
v -288 -800 0
v -320 -800 0
v -352 -800 0
v -384 -800 0
v -416 -800 0
v -448 -800 0
v -480 -800 0
v -512 -800 0
v -544 -800 0
v -576 -800 0
v -608 -800 0
v -640 -800 0
v -672 -800 0
v -704 -800 0
v -736 -800 0
v -768 -800 0
v -800 -800 0
v -832 -800 0
v -864 -800 0
v -896 -800 0
v -928 -800 0
v -960 -800 0
v -992 -800 0
v -1024 -800 0
v -1056 -800 0
v -1088 -800 0
v -1120 -800 0
v -1152 -800 0
v -1184 -800 0
v -1216 -800 0
v -1248 -800 0
v -1280 -800 0
v -1312 -800 0
v -1344 -800 0
v -1376 -800 0
v -1408 -800 0
v -1440 -800 0
v -1472 -800 0
v -1504 -800 0
v -1536 -800 0
v -1568 -800 0
v -1600 -800 0
v -1632 -800 0
v -1664 -800 0
v -1696 -800 0
v -1728 -800 0
v -1760 -800 0
v -1792 -800 0
v 0 -832 0
v -32 -832 0
v -64 -832 0
v -1728 -832 0
v -1760 -832 0
v -1792 -832 0
v 0 -864 0
v -32 -864 0
v -64 -864 0
v -1728 -864 0
v -1760 -864 0
v -1792 -864 0
v 0 -896 0
v -32 -896 0
v -64 -896 0
v -1728 -896 0
v -1760 -896 0
v -1792 -896 0
v 0 -928 0
v -32 -928 0
v -64 -928 0
v -1728 -928 0
v -1760 -928 0
v -1792 -928 0
v 0 -960 0
v -32 -960 0
v -64 -960 0
v -1728 -960 0
v -1760 -960 0
v -1792 -960 0
v 0 -992 0
v -32 -992 0
v -64 -992 0
v -1728 -992 0
v -1760 -992 0
v -1792 -992 0
v 0 -1024 0
v -32 -1024 0
v -64 -1024 0
v -1728 -1024 0
v -1760 -1024 0
v -1792 -1024 0

# Texture Coorindates (Count = 80)
vt 0.0001220703 0.7501221
vt 0.1248779 0.7501221
vt 0.1248779 0.9998779
vt 0.0001220703 0.9998779
vt 0.1251221 0.7501221
vt 0.2498779 0.7501221
vt 0.2498779 0.9998779
vt 0.1251221 0.9998779
vt 0.1251221 0.5001221
vt 0.2498779 0.5001221
vt 0.2498779 0.7498779
vt 0.1251221 0.7498779
vt 0.0001220703 0.5001221
vt 0.1248779 0.5001221
vt 0.1248779 0.7498779
vt 0.0001220703 0.7498779
vt 0.0001220703 0.2501221
vt 0.1248779 0.2501221
vt 0.1248779 0.4998779
vt 0.0001220703 0.4998779
vt 0.1251221 0.2501221
vt 0.2498779 0.2501221
vt 0.2498779 0.4998779
vt 0.1251221 0.4998779
vt 0.0001220703 0.0001220703
vt 0.1248779 0.0001220703
vt 0.1248779 0.2498779
vt 0.0001220703 0.2498779
vt 0.1251221 0.0001220703
vt 0.2498779 0.0001220703
vt 0.2498779 0.2498779
vt 0.1251221 0.2498779
vt 0.3751221 0.7501221
vt 0.4998779 0.7501221
vt 0.4998779 0.9998779
vt 0.3751221 0.9998779
vt 0.5001221 0.7501221
vt 0.6248779 0.7501221
vt 0.6248779 0.9998779
vt 0.5001221 0.9998779
vt 0.6251221 0.7501221
vt 0.7498779 0.7501221
vt 0.7498779 0.9998779
vt 0.6251221 0.9998779
vt 0.7501221 0.7501221
vt 0.8748779 0.7501221
vt 0.8748779 0.9998779
vt 0.7501221 0.9998779
vt 0.3751221 0.5001221
vt 0.4998779 0.5001221
vt 0.4998779 0.7498779
vt 0.3751221 0.7498779
vt 0.5001221 0.5001221
vt 0.6248779 0.5001221
vt 0.6248779 0.7498779
vt 0.5001221 0.7498779
vt 0.6251221 0.5001221
vt 0.7498779 0.5001221
vt 0.7498779 0.7498779
vt 0.6251221 0.7498779
vt 0.7501221 0.5001221
vt 0.8748779 0.5001221
vt 0.8748779 0.7498779
vt 0.7501221 0.7498779
vt 0.2501221 0.7501221
vt 0.3748779 0.7501221
vt 0.3748779 0.9998779
vt 0.2501221 0.9998779
vt 0.8751221 0.7501221
vt 0.9998779 0.7501221
vt 0.9998779 0.9998779
vt 0.8751221 0.9998779
vt 0.2501221 0.5001221
vt 0.3748779 0.5001221
vt 0.3748779 0.7498779
vt 0.2501221 0.7498779
vt 0.8751221 0.5001221
vt 0.9998779 0.5001221
vt 0.9998779 0.7498779
vt 0.8751221 0.7498779

# Normal
vn 0 0 -1

# Groups (Count = 1)
g mesh_[01]_[01]
f  1/1/1  2/2/1  3/3/1  4/4/1 
f  2/5/1  5/6/1  6/7/1  3/8/1 
f  7/1/1  8/2/1  9/3/1  10/4/1 
f  8/5/1  11/6/1  12/7/1  9/8/1 
f  13/1/1  14/2/1  15/3/1  16/4/1 
f  14/5/1  17/6/1  18/7/1  15/8/1 
f  19/1/1  20/2/1  2/3/1  1/4/1 
f  20/9/1  21/10/1  5/11/1  2/12/1 
f  22/13/1  23/14/1  8/15/1  7/16/1 
f  23/9/1  24/10/1  11/11/1  8/12/1 
f  25/13/1  26/14/1  14/15/1  13/16/1 
f  26/9/1  27/10/1  17/11/1  14/12/1 
f  28/13/1  29/14/1  20/15/1  19/16/1 
f  29/5/1  30/6/1  21/7/1  20/8/1 
f  31/17/1  32/18/1  23/19/1  22/20/1 
f  32/21/1  33/22/1  24/23/1  23/24/1 
f  34/17/1  35/18/1  26/19/1  25/20/1 
f  35/21/1  36/22/1  27/23/1  26/24/1 
f  37/17/1  38/18/1  29/19/1  28/20/1 
f  38/9/1  39/10/1  30/11/1  29/12/1 
f  40/25/1  41/26/1  32/27/1  31/28/1 
f  41/29/1  42/30/1  33/31/1  32/32/1 
f  43/25/1  44/26/1  35/27/1  34/28/1 
f  44/29/1  45/30/1  36/31/1  35/32/1 
f  46/25/1  47/26/1  38/27/1  37/28/1 
f  47/21/1  48/22/1  39/23/1  38/24/1 
f  49/25/1  50/26/1  41/27/1  40/28/1 
f  50/29/1  51/30/1  42/31/1  41/32/1 
f  52/1/1  53/2/1  44/3/1  43/4/1 
f  53/5/1  54/6/1  45/7/1  44/8/1 
f  55/1/1  56/2/1  47/3/1  46/4/1 
f  56/29/1  57/30/1  48/31/1  47/32/1 
f  58/1/1  59/2/1  50/3/1  49/4/1 
f  59/5/1  60/6/1  51/7/1  50/8/1 
f  61/13/1  62/14/1  53/15/1  52/16/1 
f  62/9/1  63/10/1  54/11/1  53/12/1 
f  64/13/1  65/14/1  56/15/1  55/16/1 
f  65/5/1  66/6/1  57/7/1  56/8/1 
f  67/13/1  68/14/1  59/15/1  58/16/1 
f  68/9/1  69/10/1  60/11/1  59/12/1 
f  70/17/1  71/18/1  62/19/1  61/20/1 
f  71/21/1  72/22/1  63/23/1  62/24/1 
f  73/17/1  74/18/1  65/19/1  64/20/1 
f  74/9/1  75/10/1  66/11/1  65/12/1 
f  76/17/1  77/18/1  68/19/1  67/20/1 
f  77/21/1  78/22/1  69/23/1  68/24/1 
f  79/25/1  80/26/1  71/27/1  70/28/1 
f  80/29/1  81/30/1  72/31/1  71/32/1 
f  82/25/1  83/26/1  74/27/1  73/28/1 
f  83/21/1  84/22/1  75/23/1  74/24/1 
f  85/33/1  86/34/1  87/35/1  88/36/1 
f  86/37/1  89/38/1  90/39/1  87/40/1 
f  89/41/1  91/42/1  92/43/1  90/44/1 
f  91/45/1  93/46/1  94/47/1  92/48/1 
f  93/41/1  95/42/1  96/43/1  94/44/1 
f  95/45/1  97/46/1  98/47/1  96/48/1 
f  97/33/1  99/34/1  76/35/1  98/36/1 
f  99/37/1  100/38/1  77/39/1  76/40/1 
f  100/41/1  101/42/1  78/43/1  77/44/1 
f  101/33/1  102/34/1  103/35/1  78/36/1 
f  102/37/1  104/38/1  105/39/1  103/40/1 
f  104/41/1  106/42/1  107/43/1  105/44/1 
f  106/33/1  108/34/1  109/35/1  107/36/1 
f  108/37/1  110/38/1  111/39/1  109/40/1 
f  110/41/1  112/42/1  113/43/1  111/44/1 
f  112/45/1  114/46/1  115/47/1  113/48/1 
f  116/1/1  117/2/1  80/3/1  79/4/1 
f  117/5/1  118/6/1  81/7/1  80/8/1 
f  119/1/1  120/2/1  83/3/1  82/4/1 
f  120/29/1  121/30/1  84/31/1  83/32/1 
f  122/49/1  123/50/1  86/51/1  85/52/1 
f  123/53/1  124/54/1  89/55/1  86/56/1 
f  124/57/1  125/58/1  91/59/1  89/60/1 
f  125/61/1  126/62/1  93/63/1  91/64/1 
f  126/57/1  127/58/1  95/59/1  93/60/1 
f  127/61/1  128/62/1  97/63/1  95/64/1 
f  128/49/1  129/50/1  99/51/1  97/52/1 
f  129/53/1  130/54/1  100/55/1  99/56/1 
f  130/57/1  131/58/1  101/59/1  100/60/1 
f  131/49/1  132/50/1  102/51/1  101/52/1 
f  132/53/1  133/54/1  104/55/1  102/56/1 
f  133/57/1  134/58/1  106/59/1  104/60/1 
f  134/49/1  135/50/1  108/51/1  106/52/1 
f  135/53/1  136/54/1  110/55/1  108/56/1 
f  136/57/1  137/58/1  112/59/1  110/60/1 
f  137/61/1  138/62/1  114/63/1  112/64/1 
f  139/13/1  140/14/1  117/15/1  116/16/1 
f  140/9/1  141/10/1  118/11/1  117/12/1 
f  142/13/1  143/14/1  120/15/1  119/16/1 
f  143/5/1  144/6/1  121/7/1  120/8/1 
f  145/17/1  146/18/1  140/19/1  139/20/1 
f  146/21/1  147/22/1  141/23/1  140/24/1 
f  148/17/1  149/18/1  143/19/1  142/20/1 
f  149/9/1  150/10/1  144/11/1  143/12/1 
f  151/25/1  152/26/1  146/27/1  145/28/1 
f  152/29/1  153/30/1  147/31/1  146/32/1 
f  154/25/1  155/26/1  149/27/1  148/28/1 
f  155/21/1  156/22/1  150/23/1  149/24/1 
f  157/1/1  158/2/1  152/3/1  151/4/1 
f  158/5/1  159/6/1  153/7/1  152/8/1 
f  160/1/1  161/2/1  155/3/1  154/4/1 
f  161/5/1  162/6/1  156/7/1  155/8/1 
f  163/13/1  164/14/1  158/15/1  157/16/1 
f  164/9/1  165/10/1  159/11/1  158/12/1 
f  166/13/1  167/14/1  161/15/1  160/16/1 
f  167/9/1  168/10/1  162/11/1  161/12/1 
f  169/17/1  170/18/1  164/19/1  163/20/1 
f  170/21/1  171/22/1  165/23/1  164/24/1 
f  172/17/1  173/18/1  167/19/1  166/20/1 
f  173/21/1  174/22/1  168/23/1  167/24/1 
f  175/65/1  176/66/1  177/67/1  178/68/1 
f  176/33/1  179/34/1  180/35/1  177/36/1 
f  179/37/1  181/38/1  182/39/1  180/40/1 
f  181/41/1  183/42/1  184/43/1  182/44/1 
f  183/45/1  185/46/1  186/47/1  184/48/1 
f  185/33/1  187/34/1  188/35/1  186/36/1 
f  187/37/1  189/38/1  190/39/1  188/40/1 
f  189/41/1  191/42/1  192/43/1  190/44/1 
f  191/45/1  193/46/1  194/47/1  192/48/1 
f  193/33/1  195/34/1  196/35/1  194/36/1 
f  195/37/1  197/38/1  198/39/1  196/40/1 
f  197/41/1  199/42/1  200/43/1  198/44/1 
f  199/45/1  201/46/1  202/47/1  200/48/1 
f  201/33/1  203/34/1  204/35/1  202/36/1 
f  203/37/1  205/38/1  206/39/1  204/40/1 
f  205/41/1  207/42/1  208/43/1  206/44/1 
f  207/45/1  209/46/1  210/47/1  208/48/1 
f  209/33/1  211/34/1  212/35/1  210/36/1 
f  211/37/1  213/38/1  214/39/1  212/40/1 
f  213/41/1  215/42/1  216/43/1  214/44/1 
f  215/45/1  217/46/1  218/47/1  216/48/1 
f  217/33/1  219/34/1  220/35/1  218/36/1 
f  219/37/1  221/38/1  222/39/1  220/40/1 
f  221/41/1  223/42/1  224/43/1  222/44/1 
f  223/45/1  225/46/1  226/47/1  224/48/1 
f  225/33/1  227/34/1  228/35/1  226/36/1 
f  227/37/1  229/38/1  230/39/1  228/40/1 
f  229/41/1  231/42/1  232/43/1  230/44/1 
f  231/45/1  233/46/1  234/47/1  232/48/1 
f  233/33/1  235/34/1  236/35/1  234/36/1 
f  235/69/1  237/70/1  238/71/1  236/72/1 
f  239/65/1  240/66/1  241/67/1  242/68/1 
f  240/41/1  243/42/1  244/43/1  241/44/1 
f  243/45/1  245/46/1  246/47/1  244/48/1 
f  245/33/1  247/34/1  248/35/1  246/36/1 
f  247/37/1  249/38/1  250/39/1  248/40/1 
f  249/41/1  251/42/1  252/43/1  250/44/1 
f  251/45/1  253/46/1  169/47/1  252/48/1 
f  253/25/1  254/26/1  170/27/1  169/28/1 
f  254/29/1  255/30/1  171/31/1  170/32/1 
f  256/25/1  257/26/1  173/27/1  172/28/1 
f  257/29/1  258/30/1  174/31/1  173/32/1 
f  259/73/1  260/74/1  176/75/1  175/76/1 
f  260/49/1  261/50/1  179/51/1  176/52/1 
f  261/53/1  262/54/1  181/55/1  179/56/1 
f  262/57/1  263/58/1  183/59/1  181/60/1 
f  263/61/1  264/62/1  185/63/1  183/64/1 
f  264/49/1  265/50/1  187/51/1  185/52/1 
f  265/53/1  266/54/1  189/55/1  187/56/1 
f  266/57/1  267/58/1  191/59/1  189/60/1 
f  267/61/1  268/62/1  193/63/1  191/64/1 
f  268/49/1  269/50/1  195/51/1  193/52/1 
f  269/53/1  270/54/1  197/55/1  195/56/1 
f  270/57/1  271/58/1  199/59/1  197/60/1 
f  271/61/1  272/62/1  201/63/1  199/64/1 
f  272/49/1  273/50/1  203/51/1  201/52/1 
f  273/53/1  274/54/1  205/55/1  203/56/1 
f  274/57/1  275/58/1  207/59/1  205/60/1 
f  275/61/1  276/62/1  209/63/1  207/64/1 
f  276/49/1  277/50/1  211/51/1  209/52/1 
f  277/53/1  278/54/1  213/55/1  211/56/1 
f  278/57/1  279/58/1  215/59/1  213/60/1 
f  279/61/1  280/62/1  217/63/1  215/64/1 
f  280/49/1  281/50/1  219/51/1  217/52/1 
f  281/53/1  282/54/1  221/55/1  219/56/1 
f  282/57/1  283/58/1  223/59/1  221/60/1 
f  283/61/1  284/62/1  225/63/1  223/64/1 
f  284/49/1  285/50/1  227/51/1  225/52/1 
f  285/53/1  286/54/1  229/55/1  227/56/1 
f  286/57/1  287/58/1  231/59/1  229/60/1 
f  287/61/1  288/62/1  233/63/1  231/64/1 
f  288/49/1  289/50/1  235/51/1  233/52/1 
f  289/77/1  290/78/1  237/79/1  235/80/1 
f  291/73/1  292/74/1  240/75/1  239/76/1 
f  292/57/1  293/58/1  243/59/1  240/60/1 
f  293/61/1  294/62/1  245/63/1  243/64/1 
f  294/49/1  295/50/1  247/51/1  245/52/1 
f  295/53/1  296/54/1  249/55/1  247/56/1 
f  296/57/1  297/58/1  251/59/1  249/60/1 
f  297/61/1  298/62/1  253/63/1  251/64/1 
f  298/1/1  299/2/1  254/3/1  253/4/1 
f  299/5/1  300/6/1  255/7/1  254/8/1 
f  301/1/1  302/2/1  257/3/1  256/4/1 
f  302/5/1  303/6/1  258/7/1  257/8/1 
f  304/13/1  305/14/1  299/15/1  298/16/1 
f  305/9/1  306/10/1  300/11/1  299/12/1 
f  307/13/1  308/14/1  302/15/1  301/16/1 
f  308/9/1  309/10/1  303/11/1  302/12/1 
f  309/33/1  310/34/1  311/35/1  303/36/1 
f  310/37/1  312/38/1  313/39/1  311/40/1 
f  312/41/1  314/42/1  315/43/1  313/44/1 
f  314/45/1  316/46/1  317/47/1  315/48/1 
f  316/37/1  318/38/1  319/39/1  317/40/1 
f  318/41/1  320/42/1  321/43/1  319/44/1 
f  320/45/1  322/46/1  323/47/1  321/48/1 
f  322/69/1  324/70/1  325/71/1  323/72/1 
f  326/17/1  327/18/1  305/19/1  304/20/1 
f  327/21/1  328/22/1  306/23/1  305/24/1 
f  329/17/1  330/18/1  308/19/1  307/20/1 
f  330/21/1  331/22/1  309/23/1  308/24/1 
f  331/49/1  332/50/1  310/51/1  309/52/1 
f  332/53/1  333/54/1  312/55/1  310/56/1 
f  333/57/1  334/58/1  314/59/1  312/60/1 
f  334/61/1  335/62/1  316/63/1  314/64/1 
f  335/53/1  336/54/1  318/55/1  316/56/1 
f  336/57/1  337/58/1  320/59/1  318/60/1 
f  337/61/1  338/62/1  322/63/1  320/64/1 
f  338/77/1  339/78/1  324/79/1  322/80/1 
f  340/25/1  341/26/1  327/27/1  326/28/1 
f  341/29/1  342/30/1  328/31/1  327/32/1 
f  343/25/1  344/26/1  330/27/1  329/28/1 
f  344/29/1  345/30/1  331/31/1  330/32/1 
f  346/1/1  347/2/1  341/3/1  340/4/1 
f  347/5/1  348/6/1  342/7/1  341/8/1 
f  349/1/1  350/2/1  344/3/1  343/4/1 
f  350/5/1  351/6/1  345/7/1  344/8/1 
f  352/13/1  353/14/1  347/15/1  346/16/1 
f  353/9/1  354/10/1  348/11/1  347/12/1 
f  355/13/1  356/14/1  350/15/1  349/16/1 
f  356/9/1  357/10/1  351/11/1  350/12/1 
f  358/17/1  359/18/1  353/19/1  352/20/1 
f  359/21/1  360/22/1  354/23/1  353/24/1 
f  361/17/1  362/18/1  356/19/1  355/20/1 
f  362/21/1  363/22/1  357/23/1  356/24/1 
f  364/65/1  365/66/1  366/67/1  367/68/1 
f  365/33/1  368/34/1  369/35/1  366/36/1 
f  368/37/1  370/38/1  371/39/1  369/40/1 
f  370/41/1  372/42/1  373/43/1  371/44/1 
f  372/45/1  374/46/1  375/47/1  373/48/1 
f  374/33/1  376/34/1  377/35/1  375/36/1 
f  376/37/1  378/38/1  379/39/1  377/40/1 
f  378/41/1  380/42/1  381/43/1  379/44/1 
f  380/45/1  382/46/1  383/47/1  381/48/1 
f  382/33/1  384/34/1  385/35/1  383/36/1 
f  384/37/1  386/38/1  387/39/1  385/40/1 
f  386/41/1  388/42/1  389/43/1  387/44/1 
f  388/45/1  390/46/1  391/47/1  389/48/1 
f  390/33/1  392/34/1  393/35/1  391/36/1 
f  392/37/1  394/38/1  395/39/1  393/40/1 
f  394/41/1  396/42/1  397/43/1  395/44/1 
f  396/45/1  398/46/1  399/47/1  397/48/1 
f  398/33/1  400/34/1  401/35/1  399/36/1 
f  400/37/1  402/38/1  403/39/1  401/40/1 
f  402/41/1  404/42/1  405/43/1  403/44/1 
f  404/45/1  406/46/1  407/47/1  405/48/1 
f  406/33/1  408/34/1  409/35/1  407/36/1 
f  408/37/1  410/38/1  411/39/1  409/40/1 
f  410/41/1  412/42/1  413/43/1  411/44/1 
f  412/45/1  414/46/1  415/47/1  413/48/1 
f  414/33/1  416/34/1  417/35/1  415/36/1 
f  416/37/1  418/38/1  419/39/1  417/40/1 
f  418/41/1  420/42/1  421/43/1  419/44/1 
f  420/45/1  422/46/1  423/47/1  421/48/1 
f  422/33/1  424/34/1  425/35/1  423/36/1 
f  424/37/1  426/38/1  427/39/1  425/40/1 
f  426/41/1  428/42/1  429/43/1  427/44/1 
f  428/45/1  430/46/1  431/47/1  429/48/1 
f  430/33/1  432/34/1  433/35/1  431/36/1 
f  432/37/1  434/38/1  435/39/1  433/40/1 
f  434/41/1  436/42/1  437/43/1  435/44/1 
f  436/45/1  438/46/1  439/47/1  437/48/1 
f  438/33/1  440/34/1  441/35/1  439/36/1 
f  440/37/1  442/38/1  443/39/1  441/40/1 
f  442/41/1  444/42/1  445/43/1  443/44/1 
f  444/45/1  446/46/1  447/47/1  445/48/1 
f  446/33/1  448/34/1  449/35/1  447/36/1 
f  448/37/1  450/38/1  451/39/1  449/40/1 
f  450/41/1  452/42/1  453/43/1  451/44/1 
f  452/45/1  454/46/1  358/47/1  453/48/1 
f  454/25/1  455/26/1  359/27/1  358/28/1 
f  455/29/1  456/30/1  360/31/1  359/32/1 
f  457/25/1  458/26/1  362/27/1  361/28/1 
f  458/29/1  459/30/1  363/31/1  362/32/1 
f  460/73/1  461/74/1  365/75/1  364/76/1 
f  461/49/1  462/50/1  368/51/1  365/52/1 
f  462/53/1  463/54/1  370/55/1  368/56/1 
f  463/57/1  464/58/1  372/59/1  370/60/1 
f  464/61/1  465/62/1  374/63/1  372/64/1 
f  465/49/1  466/50/1  376/51/1  374/52/1 
f  466/53/1  467/54/1  378/55/1  376/56/1 
f  467/57/1  468/58/1  380/59/1  378/60/1 
f  468/61/1  469/62/1  382/63/1  380/64/1 
f  469/49/1  470/50/1  384/51/1  382/52/1 
f  470/53/1  471/54/1  386/55/1  384/56/1 
f  471/57/1  472/58/1  388/59/1  386/60/1 
f  472/61/1  473/62/1  390/63/1  388/64/1 
f  473/49/1  474/50/1  392/51/1  390/52/1 
f  474/53/1  475/54/1  394/55/1  392/56/1 
f  475/57/1  476/58/1  396/59/1  394/60/1 
f  476/61/1  477/62/1  398/63/1  396/64/1 
f  477/49/1  478/50/1  400/51/1  398/52/1 
f  478/53/1  479/54/1  402/55/1  400/56/1 
f  479/57/1  480/58/1  404/59/1  402/60/1 
f  480/61/1  481/62/1  406/63/1  404/64/1 
f  481/49/1  482/50/1  408/51/1  406/52/1 
f  482/53/1  483/54/1  410/55/1  408/56/1 
f  483/57/1  484/58/1  412/59/1  410/60/1 
f  484/61/1  485/62/1  414/63/1  412/64/1 
f  485/49/1  486/50/1  416/51/1  414/52/1 
f  486/53/1  487/54/1  418/55/1  416/56/1 
f  487/57/1  488/58/1  420/59/1  418/60/1 
f  488/61/1  489/62/1  422/63/1  420/64/1 
f  489/49/1  490/50/1  424/51/1  422/52/1 
f  490/53/1  491/54/1  426/55/1  424/56/1 
f  491/57/1  492/58/1  428/59/1  426/60/1 
f  492/61/1  493/62/1  430/63/1  428/64/1 
f  493/49/1  494/50/1  432/51/1  430/52/1 
f  494/53/1  495/54/1  434/55/1  432/56/1 
f  495/57/1  496/58/1  436/59/1  434/60/1 
f  496/61/1  497/62/1  438/63/1  436/64/1 
f  497/49/1  498/50/1  440/51/1  438/52/1 
f  498/53/1  499/54/1  442/55/1  440/56/1 
f  499/57/1  500/58/1  444/59/1  442/60/1 
f  500/61/1  501/62/1  446/63/1  444/64/1 
f  501/49/1  502/50/1  448/51/1  446/52/1 
f  502/53/1  503/54/1  450/55/1  448/56/1 
f  503/57/1  504/58/1  452/59/1  450/60/1 
f  504/61/1  505/62/1  454/63/1  452/64/1 
f  505/1/1  506/2/1  455/3/1  454/4/1 
f  506/5/1  507/6/1  456/7/1  455/8/1 
f  508/25/1  509/26/1  458/27/1  457/28/1 
f  509/29/1  510/30/1  459/31/1  458/32/1 
f  511/13/1  512/14/1  506/15/1  505/16/1 
f  512/9/1  513/10/1  507/11/1  506/12/1 
f  514/1/1  515/2/1  509/3/1  508/4/1 
f  515/5/1  516/6/1  510/7/1  509/8/1 
f  517/17/1  518/18/1  512/19/1  511/20/1 
f  518/21/1  519/22/1  513/23/1  512/24/1 
f  520/13/1  521/14/1  515/15/1  514/16/1 
f  521/9/1  522/10/1  516/11/1  515/12/1 
f  523/25/1  524/26/1  518/27/1  517/28/1 
f  524/29/1  525/30/1  519/31/1  518/32/1 
f  526/1/1  527/2/1  521/3/1  520/4/1 
f  527/5/1  528/6/1  522/7/1  521/8/1 
f  529/1/1  530/2/1  524/3/1  523/4/1 
f  530/5/1  531/6/1  525/7/1  524/8/1 
f  532/13/1  533/14/1  527/15/1  526/16/1 
f  533/9/1  534/10/1  528/11/1  527/12/1 
f  535/13/1  536/14/1  530/15/1  529/16/1 
f  536/9/1  537/10/1  531/11/1  530/12/1 
f  538/17/1  539/18/1  533/19/1  532/20/1 
f  539/21/1  540/22/1  534/23/1  533/24/1 
f  541/17/1  542/18/1  536/19/1  535/20/1 
f  542/21/1  543/22/1  537/23/1  536/24/1 
f  544/25/1  545/26/1  539/27/1  538/28/1 
f  545/29/1  546/30/1  540/31/1  539/32/1 
f  547/25/1  548/26/1  542/27/1  541/28/1 
f  548/29/1  549/30/1  543/31/1  542/32/1 
